<svg xmlns="http://www.w3.org/2000/svg" width="22" height="18" viewBox="0 0 22 18">
    <g fill="#EAEAEA" fill-rule="evenodd">
        <path fill-rule="nonzero" d="M19.314.38H2.69A2.688 2.688 0 0 0 0 3.06v11.326a2.688 2.688 0 0 0 2.69 2.682h16.62A2.688 2.688 0 0 0 22 14.387V3.066A2.685 2.685 0 0 0 19.314.379zm1.461 14.007a1.46 1.46 0 0 1-1.46 1.457H2.69a1.46 1.46 0 0 1-1.461-1.457V3.066A1.46 1.46 0 0 1 2.69 1.609h16.62a1.46 1.46 0 0 1 1.46 1.457v11.321h.005z"/>
        <path d="M13.451 7.82l5.304-4.843a.628.628 0 0 0 .045-.873.601.601 0 0 0-.857-.045l-7.314 6.684-1.427-1.297c-.005-.005-.01-.01-.01-.014a.902.902 0 0 0-.098-.087l-5.806-5.29a.597.597 0 0 0-.857.05.624.624 0 0 0 .049.872l5.367 4.885-5.345 5.094a.627.627 0 0 0-.027.873.601.601 0 0 0 .857.032l5.426-5.168 1.471 1.339a.6.6 0 0 0 .808-.005l1.512-1.38 5.394 5.218a.596.596 0 0 0 .857-.022.627.627 0 0 0-.023-.873l-5.326-5.15z"/>
    </g>
</svg>
