<svg xmlns="http://www.w3.org/2000/svg" xmlns:xlink="http://www.w3.org/1999/xlink" width="30" height="27" viewBox="0 0 30 27">
    <defs>
        <filter id="a" width="209.1%" height="220%" x="-54.5%" y="-60%" filterUnits="objectBoundingBox">
            <feOffset dy="2" in="SourceAlpha" result="shadowOffsetOuter1"/>
            <feGaussianBlur in="shadowOffsetOuter1" result="shadowBlurOuter1" stdDeviation="2"/>
            <feColorMatrix in="shadowBlurOuter1" result="shadowMatrixOuter1" values="0 0 0 0 0 0 0 0 0 0 0 0 0 0 0 0 0 0 0.5 0"/>
            <feMerge>
                <feMergeNode in="shadowMatrixOuter1"/>
                <feMergeNode in="SourceGraphic"/>
            </feMerge>
        </filter>
        <path id="b" d="M9.72 14l-.666 2h3.892l-.667-2H9.721zm.667-2h1.226l-.338-1.012a3.038 3.038 0 0 1-.55 0L10.387 12zm-2 6l-.666 2H5.613l3.286-9.859a3 3 0 1 1 4.202 0L16.387 20H14.28l-.666-2H8.387zM11 9a1 1 0 1 0 0-2 1 1 0 0 0 0 2zM19.109.567A10.96 10.96 0 0 1 22 8a10.96 10.96 0 0 1-2.891 7.433l-1.475-1.351A8.968 8.968 0 0 0 20 8c0-2.345-.897-4.48-2.366-6.082L19.11.567zM16.16 3.27A6.975 6.975 0 0 1 18 8a6.975 6.975 0 0 1-1.84 4.73l-1.474-1.351A4.982 4.982 0 0 0 16 8a4.982 4.982 0 0 0-1.314-3.379L16.16 3.27zM2.891.567l1.475 1.351A8.968 8.968 0 0 0 2 8c0 2.344.897 4.48 2.366 6.081L2.89 15.433A10.96 10.96 0 0 1 0 8 10.96 10.96 0 0 1 2.891.567zM5.84 3.27L7.314 4.62A4.982 4.982 0 0 0 6 8c0 1.302.498 2.488 1.314 3.378L5.84 12.73A6.975 6.975 0 0 1 4 8c0-1.824.697-3.485 1.84-4.73z"/>
    </defs>
    <g fill="none" fill-rule="evenodd" filter="url(#a)" transform="translate(4 1)">
        <mask id="c" fill="#fff">
            <use xlink:href="#b"/>
        </mask>
        <use fill="#FFF" xlink:href="#b"/>
        <g fill="#FFF" mask="url(#c)" opacity=".779">
            <path d="M-1-2h24v24H-1z"/>
        </g>
    </g>
</svg>
