<svg xmlns="http://www.w3.org/2000/svg" width="22" height="22" viewBox="0 0 22 22">
    <g fill="#EAEAEA" fill-rule="nonzero">
        <path d="M14.447 0c-4.165 0-7.553 3.336-7.553 7.436 0 .911.164 1.797.49 2.638L.16 17.184a.538.538 0 0 0-.161.384v3.89c0 .3.246.542.55.542h3.257a.555.555 0 0 0 .39-.158l1.097-1.08a.538.538 0 0 0 .161-.383v-1.326h1.346c.304 0 .55-.243.55-.542v-.531h.54c.304 0 .55-.243.55-.542v-1.166h1.185a.555.555 0 0 0 .39-.159l1.75-1.724c.855.32 1.755.482 2.68.482 4.166 0 7.554-3.335 7.554-7.435S18.612 0 14.447 0zm0 13.788a6.49 6.49 0 0 1-2.59-.533.557.557 0 0 0-.605.109l-.005.004-1.849 1.82H7.891a.546.546 0 0 0-.55.542v1.166H6.8a.546.546 0 0 0-.55.542v.53H4.905a.546.546 0 0 0-.55.543v1.644l-.776.761H1.101v-.766l6.728-6.623a.482.482 0 0 0 0-.69.501.501 0 0 0-.7 0L1.1 18.772v-.979l7.32-7.206.004-.005a.536.536 0 0 0 .11-.596 6.224 6.224 0 0 1-.54-2.55c0-3.502 2.894-6.351 6.452-6.351S20.9 3.934 20.9 7.436c0 3.502-2.894 6.352-6.452 6.352z"/>
        <path d="M16.5 2.75c-1.01 0-1.833 1.028-1.833 2.292 0 1.263.822 2.291 1.833 2.291 1.01 0 1.833-1.028 1.833-2.291 0-1.264-.822-2.292-1.833-2.292zm0 3.36c-.471 0-.854-.48-.854-1.068 0-.59.383-1.068.854-1.068s.854.479.854 1.068c0 .589-.383 1.068-.854 1.068z"/>
    </g>
</svg>
