<svg xmlns="http://www.w3.org/2000/svg" width="198" height="457" viewBox="0 0 198 457">
    <g fill="none" fill-rule="evenodd" transform="translate(-6 1)">
        <path stroke="#FFF" stroke-width=".5" d="M94 33V11.59v-.885C94.406 4.616 99.992 0 106.29 0h.71"/>
        <path fill="#FFF" d="M90.245 40c-.976-5.244 1.267-6.087 1.462-5.993.098.093.293 2.528.293 2.528L90.245 40zM123.755 40c.976-5.244-1.267-6.087-1.462-5.993-.098.093-.293 2.528-.293 2.528L123.755 40z"/>
        <path stroke="#FFF" stroke-linecap="round" stroke-width=".5" d="M88 66l3.442-24L92 63.5M87 53l-2.462.583c-4.512 1.067-7.794 4.466-8.41 9.708L75 73"/>
        <path stroke="#FFF" stroke-linecap="round" stroke-width=".5" d="M72 124s.101-17.09 1.416-26.178c1.315-9.088 3.54-21.337 6.373-26.375C82.621 66.409 99.514 59 99.514 59H107"/>
        <path stroke="#FFF" stroke-linecap="round" stroke-width=".5" d="M71.976 76.5c-1.587 6.464-.992 45.345-.893 47.5-2.976-6.954-4.861-10.97-3.77-26.052.992-13.417 3.373-19.49 5.655-22.917C75.25 71.603 80.012 67 81.203 67c1.19 0 .695 2.546.695 2.546M58.894 134c-.886-12.968-2.756-27.3 4.429-39 2.756 11.213 1.673 22.815 1.673 34.222"/>
        <path stroke="#FFF" stroke-linecap="round" stroke-width=".5" d="M58.286 134.267l-4.335-5.128s-.788-3.944 2.069-19.228C58.483 96.599 62.916 94.43 64 94.134v-.099c-1.38-.197-8.571 0-13.793 12.72C44.296 120.956 44 139 44 139"/>
        <path stroke="#FFF" stroke-linecap="round" stroke-width=".75" d="M24.996 137.622c.093-.886-1.573-2.216-2.96-1.33-1.944 1.242-.74 3.37.277 3.636 1.666.354 1.666-.71 1.666-.71M25 138.427l1.201 1.018c.4.37 1 .555 1.501.555 3.103-.093 13.411-.278 14.812-.555 1.602-.185 7.106-2.684 10.209-3.702 3.202-1.018 14.211-2.035 15.412-1.665 1.201.37.8 2.22.8 2.22M23 141.03l1.008.462c.302.185.605.185.907.277 2.722.185 16.027.831 18.547 0 2.822-1.015 5.846-2.769 9.878-2.769 5.946 0 7.66 6 7.66 6"/>
        <path stroke="#FFF" stroke-linecap="round" stroke-width=".5" d="M43 146h-1.143L39 142M8 155s11.597-3.394 14.42-4.03c2.723-.743 20.672-2.97 20.672-2.97H68"/>
        <path stroke="#FFF" stroke-linecap="round" stroke-width=".5" d="M10.402 158.112c-1.3.582-2.2.97-2.6.873-1.1-.291-.9-2.62-.4-3.397.5-.776 11.7-10.87 14.4-11.744 2.8-.776 10.199-.291 13.598-.582C38.8 142.97 39 142 39 142"/>
        <path stroke="#FFF" stroke-linecap="round" d="M43 151c-.2 0-21.236 6.067-23.13 6.44-1.894.373-9.87.56-9.87.56 2.592-1.12 6.58-3.173 10.867-3.92C27.447 153.053 43 151 43 151z"/>
        <path stroke="#FFF" stroke-linecap="round" stroke-width=".5" d="M49.792 152L26 160.129 28.61 167 52 157.42zM26.108 161l-4.258 1.605c-1.514.566-2.271 2.265-1.609 3.775.568 1.322 2.176 1.983 3.501 1.416L28 166.192M44.81 153c-.702-2.745-1.806-2.461-1.806-2.461L42 144.007c.803-.095 1.004.852 1.004.852H68M53.493 174s-3.955 4.585-3.448 8M50.01 182s-.023 17.313 0 18.27c.024.956.49 3.73.49 3.73"/>
        <path stroke="#FFF" stroke-linecap="round" stroke-width=".5" d="M61.903 196c.097-1.197.097-2.194.097-2.194h-1.948c-1.948-.997-.974-2.992-1.948-4.987C57.13 177.85 50.312 169.871 47 159M62 215s1.2 4.575 4.1 8.156C69 226.736 91.3 247.624 95 252"/>
        <path stroke="#FFF" stroke-linecap="round" stroke-width=".5" d="M66 223c-2.194-1.116-8.087-5.867-12.054-10.576-2.664-3.163-4.46-6.307-3.682-8.32M66.742 179s-3.783 18.18-.2 32.92C69.73 225.184 93.027 240.612 99 247M64 183s1.3-3 3-5"/>
        <path fill="#FFF" d="M78 157c-1.43 2.076-2.964 4.053-4.292 6.13-1.328 2.075-2.657 4.151-3.781 6.326-1.226 2.175-2.248 4.449-3.27 6.624-.511 1.087-.92 2.274-1.43 3.46-.512 1.186-.818 2.373-1.227 3.46.204-1.186.51-2.471.818-3.658.306-1.186.715-2.372 1.124-3.559a41.159 41.159 0 0 1 3.065-6.821c1.227-2.175 2.555-4.35 4.088-6.327A65.568 65.568 0 0 1 78 157z"/>
        <path stroke="#FFF" stroke-linecap="round" stroke-width=".5" d="M94 143s-7.286 4.073-11.738 9.14c-1.316 1.588-3.238 3.476-5.262 5.86M75 175.018c.835-.295 8.557 3.147 12 6.982M54 160s2.11 15.632 7 22M61.6 183l.4 11"/>
        <path stroke="#FFF" stroke-linecap="round" stroke-width=".75" d="M78 235l2 12"/>
        <path fill="#FFF" d="M80.445 248.1c2.72 4.667 6.651 8.54 11.287 11.32 4.636 2.78 9.977 4.37 15.318 4.568 5.342.199 10.784-1.191 15.42-3.873 4.635-2.68 8.465-6.752 11.085-11.42.1-.1.202-.198.302-.1.101.1.202.2.101.299-1.31 2.383-2.822 4.667-4.636 6.753-1.814 1.986-4.03 3.773-6.349 5.263-4.736 2.88-10.38 4.27-15.923 4.071-5.542-.198-11.085-1.886-15.822-4.766-2.318-1.49-4.535-3.178-6.349-5.264-1.915-1.986-3.527-4.27-4.837-6.653-.101-.1 0-.298.1-.298.101 0 .202 0 .303.1z"/>
        <path fill="#FFF" d="M80.592 248.616c-.175-.295-.35-.492-.525-.59-.175-.1-.35-.1-.525.098-.35.394-.525 1.083-.7 1.772-.263 1.379-.35 2.757-.35 4.135 0 2.856.175 5.613.7 8.37.525 2.756 1.138 5.513 1.4 8.369.175 1.378.263 2.855.263 4.234v4.233c0 5.613-.175 11.422-2.013 16.837-.963 2.658-1.925 5.218-2.626 7.975-.35 1.379-.787 2.659-1.137 4.037-.438 1.379-.876 2.659-1.663 3.84-.088.099-.175.099-.35 0-.088-.098-.088-.197 0-.394.787-1.083 1.225-2.363 1.575-3.741a69.622 69.622 0 0 0 1.138-4.037 141.368 141.368 0 0 1 2.625-7.975c1.838-5.219 2.013-11.028 2.013-16.64v-4.234c0-1.378-.087-2.855-.262-4.234-.35-2.757-.875-5.514-1.4-8.369a45.414 45.414 0 0 1-.788-8.467c0-1.379.087-2.856.262-4.333.175-.689.263-1.477.788-2.067.088-.197.263-.296.525-.394.263-.099.438 0 .613.098.35.197.612.493.788.788.087.197.087.394-.088.492.088.493-.088.394-.263.197 0 .099 0 .099 0 0z"/>
        <path stroke="#FFF" stroke-linecap="round" stroke-width=".75" d="M91.524 269s2.09 15.204-2.49 24.879c-5.574 11.847-11.846 12.34-12.244 15.303-1.096 7.7-4.68 13.328-3.584 15.796C74.3 327.446 85.152 331 85.152 331"/>
        <path stroke="#FFF" stroke-linecap="round" d="M71 228c1.9 5.937 2.3 36.61 4.6 38.49 1.3 1.088 4.4.098 4.4.098M67.05 225l.9 24M68.85 268l-.7-20"/>
        <path fill="#FFF" fill-rule="nonzero" d="M44.43 279c-1.674 0-4.43 1.1-4.43 2.5s2.855 2.5 4.43 2.5H59v-5H44.43zm-1.181 2.9h-1.182v-.8h1.182v.8zm1.673.7h-1.181v-.8h1.181v.8zm0-1.5h-1.181v-.8h1.181v.8zm1.674 2.5h-1.181v-.8h1.18v.8zm0-1.7h-1.181v-.8h1.18v.8zm0-1.8h-1.181v-.8h1.18v.8zm1.673 2.5h-1.18v-.8h1.18v.8zm0-1.5h-1.18v-.8h1.18v.8zm1.674 2.5h-1.181v-.8h1.181v.8zm0-1.7h-1.181v-.8h1.181v.8zm0-1.8h-1.181v-.8h1.181v.8zm1.674 2.5h-1.182v-.8h1.182v.8zm0-1.5h-1.182v-.8h1.182v.8zm1.673 2.5H52.11v-.8h1.181v.8zm0-1.7H52.11v-.8h1.181v.8zm0-1.8H52.11v-.8h1.181v.8zm1.674 2.5h-1.182v-.8h1.182v.8zm0-1.5h-1.182v-.8h1.182v.8zm1.673 2.5h-1.181v-.8h1.181v.8zm0-1.7h-1.181v-.8h1.181v.8zm0-1.8h-1.181v-.8h1.181v.8zm1.674 2.5H57.13v-.8h1.18v.8zm0-1.5H57.13v-.8h1.18v.8zM154 281v5h14.57c1.674 0 4.43-1.1 4.43-2.5s-2.855-2.5-4.43-2.5H154zm15.751 2.1h1.182v.8h-1.182v-.8zm-1.673.7h1.181v.8h-1.181v-.8zm0-1.4h1.181v.8h-1.181v-.8zm-1.674 2.5h1.181v.8h-1.18v-.8zm0-1.8h1.181v.8h-1.18v-.8zm0-1.7h1.181v.8h-1.18v-.8zm-1.673 2.4h1.18v.8h-1.18v-.8zm0-1.4h1.18v.8h-1.18v-.8zm-1.674 2.5h1.181v.8h-1.181v-.8zm0-1.8h1.181v.8h-1.181v-.8zm0-1.7h1.181v.8h-1.181v-.8zm-1.674 2.4h1.182v.8h-1.182v-.8zm0-1.4h1.182v.8h-1.182v-.8zm-1.673 2.5h1.181v.8h-1.181v-.8zm0-1.8h1.181v.8h-1.181v-.8zm0-1.7h1.181v.8h-1.181v-.8zm-1.674 2.4h1.182v.8h-1.182v-.8zm0-1.4h1.182v.8h-1.182v-.8zm-1.772 2.5h1.182v.8h-1.182v-.8zm0-1.8h1.182v.8h-1.182v-.8zm0-1.7h1.182v.8h-1.182v-.8zm-1.575 2.4h1.181v.8h-1.18v-.8zm0-1.4h1.181v.8h-1.18v-.8z"/>
        <path stroke="#FFF" stroke-linecap="round" d="M66 289l-.364 1.32-1.153 2.004L57 303M49 307.754s2.34-1.494 4.68-2.889c2.341-1.394 6.92-3.387 9.057 0 2.137 3.387.916 12.353.916 12.353L63 322"/>
        <path stroke="#FFF" stroke-linecap="round" stroke-width=".75" d="M47 313s3.446-3.672 6.486-3.978c3.041-.307 8.514 2.754 8.514 2.754M83 333s-13.217-3.375-14-9"/>
        <path stroke="#FFF" stroke-linecap="round" stroke-width=".75" d="M64 336.67s3.148-10.953 5.213-11.67c-.295 2.15-.59 5.323.59 6.96.984 1.434 6.394 4.607 12.197 6.04M63.2 322l.6 14M57.497 329.716L58 333.9c-14.675-1.892-16.886 6.175-17.791 4.98-.905-1.196 1.206-6.972 4.825-18.425 3.618-11.453 7.639-22.21 9.247-21.412 1.475.687-4.985 28.25-6.783 36.344-.286 1.285-.834 1.996-.834 2.114"/>
        <path stroke="#FFF" stroke-linecap="round" stroke-width=".75" d="M39.692 348l-.299-2.3s-2.292-.3-.996-3.1c1.295-2.8 7.374-5.9 13.054-6.5 5.68-.6 8.969 2.5 8.969 2.5l2.79-2.6 2.79 7.4"/>
        <path stroke="#FFF" stroke-linecap="round" stroke-width=".75" d="M57 337v18.273h-2V362"/>
        <path stroke="#FFF" stroke-linecap="round" stroke-width=".75" d="M57.132 358.042s.957 1.11.861 2.22c0 .706-.287 1.917-1.53 1.716 0 0-.288 0-.766-.101-.957-.202-2.679-.505-3.731-1.01-1.722-.706-2.966-2.22-2.966-3.33 0-.706.191-3.632.861-5.853.383-1.21.574-2.018 1.148-2.32 1.627-1.01 3.444.403 3.444.403l.096 1.917M43 360l6 6M48.003 362.926s4.635.385 6.283 1.637c1.648 1.155 1.854 5.103 1.648 5.392-.206.192-2.266-.193-4.738-1.83-2.37-1.733-3.193-5.2-3.193-5.2s-.103-.77.927-1.925M56 362s2 1.58 2 2.568-.25 5.432-.25 5.432"/>
        <path stroke="#FFF" stroke-linecap="round" stroke-width=".75" d="M56 369.712l1.382.1s-.098 2.086 1.087 2.185c1.678.1 1.777-2.186 1.777-2.186s3.85-6.06 3.752-12.617c-.197-6.557 0-16.194 0-16.194"/>
        <path stroke="#FFF" stroke-linecap="round" stroke-width=".75" d="M60.545 369L59 346.41l2.273-4.91L63 336M106.902 329.097c-21.36-.492-25.986.492-24.706 12.5.59 6.202 12.894 49.02 12.894 49.02S97.354 394.95 107 398"/>
        <path stroke="#FFF" stroke-linecap="round" stroke-width=".75" d="M107 395.606L95 391v13M98 407l1.772 26.766v2.952h.984v5.019s3.741 2.263 6.99 2.263 6.596-2.263 6.596-2.263v-5.019h.984v-2.952L117 407M85 403s.191 25.362.383 26.546c.191 1.184 2.106 3.454 2.106 3.454H94M88.93 436.737h8.358l.403 3.334H99L98.597 443c-1.611-.202-8.56-5.152-10.07-6.768-2.316-1.11-1.31-3.232-1.31-3.232"/>
        <path stroke="#FFF" stroke-linecap="round" stroke-width=".75" d="M99 443l1.986.505s0 5.759.757 6.769c.757 1.01 2.838 1.818 4.257 1.717v-8.486M64 344h1.851L82 382"/>
        <path stroke="#FFF" stroke-linecap="round" stroke-width=".75" d="M68.305 349.092s-.736 23.631 0 25.232c.644 1.602 2.854 3.604 4.695 2.202M74 389.97L75.5 367l.5 26"/>
        <path stroke="#FFF" stroke-linecap="round" stroke-width=".75" d="M67.584 368s-1.679-.2-1.58 6c.099 4.8 0 9.4 0 11.3 0 .6.099 1.2.494 1.8l1.086 1.9c.394.6 1.085 1 1.875 1H74M79.954 396.48s-3.152-4.038-5.714-4.432c-1.576-.295-10.147.69-13.792 4.924-3.645 4.235.493 7.583 2.562 8.174 2.068.689 13.3 1.181 14.678.59 1.38-.59 2.562-1.083 2.266-9.256z"/>
        <path stroke="#FFF" stroke-linecap="round" stroke-width=".75" d="M136.933 395s9.547.398 11.934 2.487c.299 1.89 0 6.169 0 6.169h-15.614-6.265c-2.885 2.686-8.355 2.984-8.355 2.984l7.658 5.671s-1.094 14.128-5.867 21.689H94.068c-4.972-7.561-6.166-21.689-6.166-21.689l8.056-5.67s-5.768-.3-8.752-2.985H64.133s-.299-4.278 0-6.169c2.486-2.089 12.53-2.487 12.53-2.487l3.979 1.79"/>
        <path stroke="#FFF" stroke-linecap="round" stroke-width=".5" d="M64 404l-2 1"/>
        <path stroke="#FFF" stroke-linecap="round" stroke-width=".75" d="M54.15 352l.7 3"/>
        <path stroke="#FFF" stroke-linecap="round" stroke-width=".5" d="M50.65 148l-.3 4M68.128 151L71 154.984s-7.277 11.659-8.809 17.1c-1.531 5.44-1.148 9.036-1.148 9.036s.383 2.817 3.35 1.554M107.793 143.717v1.666H97.142S94.952 167.71 107.793 168c12.245-.29 10.055-22.617 10.055-22.617h-10.055v-1.666zM98 116h-7.7l-6 5.951S81.2 119.902 77 124"/>
        <path stroke="#FFF" stroke-linecap="round" stroke-width=".488" d="M201 155s-11.032-3.394-13.64-4.03C184.752 150.227 167 148 167 148"/>
        <path stroke="#FFF" stroke-linecap="round" stroke-width=".488" d="M199.969 158.112c1.185.582 1.976.97 2.272.873.988-.291.89-2.62.395-3.397-.494-.776-10.965-10.87-13.534-11.744-2.568-.776-9.582-.291-12.743-.582C173.198 143.068 173 142 173 142"/>
        <path stroke="#FFF" stroke-linecap="round" d="M168 151.244c.396 1.153 15.455 6.813 21.4 7.232 1.882.105 10.6.524 10.6.524-2.378-1.258-6.241-3.773-10.402-4.507-6.143-1.153-21.598-4.402-21.598-3.25z"/>
        <path stroke="#FFF" stroke-linecap="round" stroke-width=".488" d="M161.029 152L187 160.129 184.464 167 159 157.42zM186.962 161l4.217 1.605c1.472.566 2.256 2.265 1.57 3.775-.589 1.322-2.158 1.983-3.531 1.416L185 166.192M145.363 179s3.549 18.18.197 32.92c-2.958 13.265-24.94 28.693-30.56 35.08"/>
        <path stroke="#FFF" stroke-linecap="round" d="M75 175c-.867.108-3.663.865-6.169 1.946-.674.324-1.253 1.297-1.831 2.054"/>
        <path stroke="#FFF" stroke-linecap="round" stroke-width="1.5" d="M87 182c1.781-.513 11.281-7.897 19-8 7.719.103 17.318 7.59 19 8"/>
        <path stroke="#FFF" stroke-linecap="round" stroke-width=".5" d="M138 175.018c-.835-.295-8.557 3.147-12 6.982"/>
        <path stroke="#FFF" stroke-linecap="round" d="M137 175c.942.103 3.977.82 6.698 1.846.732.308 1.57 1.436 2.302 2.154"/>
        <path stroke="#FFF" stroke-linecap="round" stroke-width=".75" d="M148 183s-1.286-2.96-3-5"/>
        <path fill="#FFF" d="M135 157a43.86 43.86 0 0 1 4.56 5.745c1.455 2.045 2.716 4.09 3.783 6.33 1.067 2.24 2.135 4.48 2.91 6.816.389 1.169.777 2.337 1.068 3.506.29 1.169.582 2.434.679 3.603l-1.164-3.506c-.388-1.168-.776-2.337-1.261-3.408-.97-2.24-1.94-4.48-3.008-6.622-1.067-2.142-2.328-4.284-3.59-6.33-1.26-2.141-2.619-4.09-3.977-6.134z"/>
        <path stroke="#FFF" stroke-linecap="round" stroke-width=".488" d="M120 143s6.9 4.073 11 9.14c1.3 1.588 3 3.476 5 5.86M145.029 151L142 155.022s7.52 11.77 9.191 17.264c1.15 3.727 1.776 13.929-3.133 11.28"/>
        <path stroke="#FFF" stroke-linecap="round" stroke-width=".488" d="M126.269 178s-5.06-18.22-5.262-20.559c-.202-2.338 3.946-11.01 3.946-11.01V140s4.857.097 7.893 2.63c3.035 2.534 8.803 8.283 13.154 7.99M161 158s-4.355 17.508-9 24"/>
        <path stroke="#FFF" stroke-linecap="round" stroke-width=".75" d="M135 235.5l-2 11.5"/>
        <path fill="#FFF" d="M132.115 248.027c.21-.296.526-.591.947-.887.21-.1.526-.198.842-.1.316.1.526.297.632.494.526.69.631 1.48.842 2.17a29.8 29.8 0 0 1 .316 4.243c-.106 2.861-.316 5.722-.948 8.485-.631 2.762-1.263 5.525-1.579 8.287a27.464 27.464 0 0 0-.315 4.144v4.242c0 5.624.21 11.248 2.21 16.575l1.579 3.947c.526 1.282 1.052 2.663 1.473 4.045a60.978 60.978 0 0 0 1.369 4.045c.42 1.282.842 2.762 1.473 3.946.106.099 0 .296-.105.296-.105.099-.316 0-.316-.099-.42-.69-.631-1.38-.842-1.973l-.631-1.973a60.978 60.978 0 0 0-1.369-4.045c-.42-1.381-.947-2.664-1.473-3.946l-1.684-3.947c-2.105-5.327-2.316-11.148-2.316-16.772l-.105-4.242c0-1.382.105-2.861.316-4.243.315-2.86 1.052-5.623 1.578-8.287.632-2.763.842-5.525.842-8.288 0-1.38 0-2.762-.315-4.143-.106-.691-.316-1.382-.632-1.776l-.21-.198h-.21c-.211.1-.422.296-.632.592-.106.198-.421.198-.632.1-.21-.198-.316-.494-.105-.692 0 .1 0 0 0 0z"/>
        <path stroke="#FFF" stroke-linecap="round" stroke-width=".75" d="M122.45 269s-1.982 15.204 2.378 24.879c5.251 11.847 11.197 12.34 11.593 15.303.991 7.7 4.46 13.328 3.37 15.796-1.09 2.468-11.297 6.022-11.297 6.022"/>
        <path stroke="#FFF" stroke-linecap="round" stroke-width=".731" d="M164 313s-3.23-3.673-5.972-3.98c-2.741-.305-8.028 2.858-8.028 2.858"/>
        <path fill="#FFF" d="M141.299 317.68a63.609 63.609 0 0 0-1.568-6.385l.063-1.795.878 1.296c.94.998 1.776 2.095 2.507 3.193.731 1.098 1.463 2.295 1.985 3.592.523 1.297.836 2.694.836 3.991 0 1.397-.104 2.694-.522 4.091-.105.3-.418.4-.627.3-.314-.1-.418-.4-.314-.6.314-1.196.523-2.494.523-3.691 0-1.297-.21-2.494-.732-3.692-.522-1.197-1.149-2.295-1.88-3.392-.732-1.098-1.567-2.096-2.403-3.094l.94-.498c.627 2.195 1.15 4.29 1.463 6.585.313 2.195.522 4.49.209 6.685 0 .2-.836 1.098-1.045 1.098-.522 0-.105-.998 0-1.197.209-2.096 0-4.291-.313-6.486z"/>
        <path stroke="#FFF" stroke-linecap="round" stroke-width=".731" d="M130 333s11.306-3.048 12-8M149 336.67s-2.931-10.953-4.885-11.67c.293 2.15.488 5.323-.586 6.96-.977 1.434-6.058 4.607-11.529 6.04M148.5 323v13M154.5 329.716l-.5 4.183c13.92-1.892 16.023 6.175 16.824 4.98.801-1.196-1.202-6.972-4.607-18.425-1.5-5.049-3.649-11.2-6.444-18.454-1.217-2.152-2.006-3.138-2.368-2.958-1.602.796 6.91 38.542 6.91 38.542"/>
        <path stroke="#FFF" stroke-linecap="round" stroke-width=".731" d="M171.314 348l.305-2.3s2.237-.3 1.017-3.1c-1.22-2.8-7.218-5.9-12.606-6.5-5.49-.6-8.743 2.5-8.743 2.5l-2.644-2.6-.952 5"/>
        <path stroke="#FFF" stroke-linecap="round" d="M162.988 349c.196-5.821-2.06-9.735-3.532-10.639-1.471-1.003-7.456.402-7.456.402"/>
        <path stroke="#FFF" stroke-linecap="round" stroke-width=".731" d="M154.89 358.042s-.89 1.11-.89 2.22c0 .706.297 1.917 1.484 1.716 0 0 .296 0 .79-.101.99-.202 2.572-.505 3.759-1.01 1.681-.706 2.868-2.22 2.967-3.33 0-.706-.198-3.632-.791-5.853-.297-1.21-.594-2.018-1.088-2.32-1.583-1.01-3.363.403-3.363.403l-.099 1.917L157 355l-2.11 3.042zM168 360l-6 6M156 362s-2 1.58-2 2.568.26 5.432.26 5.432"/>
        <path stroke="#FFF" stroke-linecap="round" stroke-width=".731" d="M156 369.811h-1.454s.104 2.285-1.039 2.186c-1.766 0-1.766-2.186-1.766-2.186s-3.843-6.06-3.739-12.617c.208-6.557 0-16.194 0-16.194"/>
        <path stroke="#FFF" stroke-linecap="round" stroke-width=".731" d="M151.476 369L153 346.41l-2.286-4.91L149 336M107 329.097c20.63-.492 25.015.492 23.82 12.5-.599 6.202-12.359 49.02-12.359 49.02S116.27 394.95 107 398"/>
        <path stroke="#FFF" stroke-linecap="round" stroke-width=".731" d="M107 395.606L118 391v13M129 403s-.202 25.362-.404 26.546c-.203 1.184-2.124 3.454-2.124 3.454H120M125.181 436.737h-7.635l-.386 3.334H116l.387 2.929c1.45-.202 7.828-5.152 9.18-6.768 2.127-1.11 1.257-3.232 1.257-3.232M116 443l-1.9.505s0 5.759-.8 6.769c-.7 1.01-2.9 1.818-4.3 1.717v-8.486"/>
        <path stroke="#FFF" stroke-linecap="round" stroke-width=".731" d="M113.145 449h1.217v3.474H117c0 1.368-1.014 2.526-2.333 2.526H98.434c-1.318 0-2.434-1.158-2.434-2.526h2.84V449h1.32M148 344h-1.639L131 382"/>
        <path stroke="#FFF" stroke-linecap="round" stroke-width=".731" d="M144.584 348s.86 23.904.108 25.453c-.752 1.548-3.652 3.387-5.692 2.13M137.6 367l-.2 20"/>
        <path stroke="#FFF" stroke-linecap="round" stroke-width=".731" d="M144.56 368s1.531-.2 1.436 6.028c-.096 4.822 0 9.443 0 11.351 0 .603-.096 1.206-.383 1.708l-1.053 1.908c-.383.704-1.148 1.005-1.818 1.005h-4.402l-1.34-3.215M133.05 396.48s2.964-4.038 5.435-4.432c1.482-.295 9.685.69 13.144 4.924 3.46 4.235-.494 7.583-2.372 8.174-1.976.689-12.65 1.181-14.034.59-1.383-.492-2.47-1.083-2.174-9.256z"/>
        <path stroke="#FFF" stroke-linecap="round" stroke-width=".488" d="M149 404l2 1"/>
        <path stroke="#FFF" stroke-linecap="round" stroke-width=".731" d="M157.85 352l-.7 3"/>
        <path stroke="#FFF" stroke-linecap="round" stroke-width=".488" d="M117.455 145.176l2.5-2.176s1.5 27-12.699 27c-14.897 0-13.197-27-13.197-27l2.6 2.176"/>
        <path stroke="#FFF" stroke-width=".5" d="M120 33V11.555v-.881C119.594 4.602 114.008 0 107.71 0H107M132 70c-4.059-18.553-6.434-27.73-12.077-36.414-3.86-5.922-8.513-8.586-12.472-8.586-3.96 0-8.613 2.664-12.473 8.586-5.643 8.782-7.92 17.467-11.978 36.02"/>
        <path stroke="#FFF" stroke-linecap="round" stroke-width=".5" d="M126 66l-3.442-24L122 63.5M127 53l2.462.583c4.512 1.067 7.794 4.466 8.41 9.708L139 73"/>
        <path stroke="#FFF" stroke-linecap="round" stroke-width=".5" d="M142 124s-.101-17.09-1.416-26.178c-1.315-9.088-3.54-21.337-6.373-26.375C131.277 66.409 114.486 59 114.486 59H107"/>
        <path stroke="#FFF" stroke-linecap="round" stroke-width=".5" d="M142.024 76.5c1.587 6.464.992 45.345.893 47.5 2.976-6.954 4.861-10.97 3.77-26.052-.992-13.417-3.373-19.49-5.655-22.917-2.282-3.428-7.044-8.031-8.235-8.031-1.19 0-.695 2.546-.695 2.546"/>
        <path stroke="#FFF" stroke-linecap="round" stroke-width=".75" d="M140 103c-1.006-1.87-11.87-22.84-12.575-23.627C119.88 70.316 107.607 65 106.5 65c-1.107 0-13.48 5.316-20.925 14.373-2.515 3.052-5.533 10.042-5.835 10.73-.302.69-6.74 12.011-6.74 12.011"/>
        <path stroke="#FFF" stroke-linecap="round" stroke-width=".5" d="M155.681 130.66c.314-4.388.523-10.042 0-16.672-1.045-13.358-5.229-19.403-5.543-19.988-.104.877-1.987 14.43-2.092 23.205-.104 9.067 0 15.795 0 15.795"/>
        <path stroke="#FFF" stroke-linecap="round" stroke-width=".5" d="M161 128.669c.294-7.36-1.176-14.817-2.843-21.977-.98-4.376-2.451-10.74-7.157-12.431 7.647-2.188 12.647 9.944 14.314 15.314 3.235 10.144 5.49 20.685 5.686 31.425M115 116h7.836l6.106 6.025S133.726 119.95 138 124"/>
        <path stroke="#FFF" stroke-linecap="round" d="M124 115s-5.368-3.112-17-2.997C95.368 111.888 90 115 90 115"/>
        <path stroke="#FFF" stroke-linecap="round" stroke-width=".731" d="M153 253h7.374c1.414 0 2.626 1.154 2.626 2.5s-1.212 2.5-2.626 2.5H153v-5zM148 267c4.898-4.148 5-8 5-8M155 259s-1.125 8.102-9 13.406V278M147.233 267s-.525-9.4 0-12.2c.525-2.8 3.254-6.3 3.779-7.9.63-1.6.21-3.6.21-3.6 0-.1.105-.3.21-.3H155M157 299s-1.472 1.96-2.838 2.147c-1.366.186-4.415-.094-4.835 1.026-.42 1.12-.315 3.827-.315 3.827"/>
        <path stroke="#FFF" stroke-linecap="round" stroke-width=".488" d="M166 160s-9.694 24.799-15 33M152 194l-2-10"/>
        <path stroke="#FFF" stroke-linecap="round" d="M161.921 193c.432-6.103-1.009-11.915-1.921-17"/>
        <path stroke="#FFF" stroke-linecap="round" stroke-width=".488" d="M152.733 199c3.003 23.194-20.02 37.011-33.733 53M141 229s-2.12 36.733-3.47 37.61c-1.35.877-4.53 0-4.53 0"/>
        <path stroke="#FFF" stroke-linecap="round" stroke-width="1.208" d="M155.105 204s8.796 7.01 9.424 8.886c.628 1.876.628 21.03 0 22.511C163.9 236.878 155 243 155 243l.105-22.511 5.13.987"/>
        <path stroke="#FFF" stroke-linecap="round" stroke-width=".731" d="M152 277.854s-2.183-1.702-4.886-.3c-2.702 1.402 0 4.207 2.91 3.706 1.04 1.001.625 4.607.625 4.607L157 299M191 142.256c0-3.235 4.998-2.773 4.998 0 .105 1.941-4.998 2.68-4.998 0z"/>
        <path stroke="#FFF" stroke-linecap="round" stroke-width=".5" d="M171 143.4l5 .2"/>
        <path stroke="#FFF" stroke-linecap="round" stroke-width=".75" d="M114.551 157.8c.303-.2 1.11-1 1.716-1.6.403-.4.706-1 .706-1.6.101-1.1 0-2.7-1.816-3.2l-3.734-1.1c-.606-.2-1.211-.3-1.817-.3H105.367c-.605 0-1.21.1-1.816.3l-3.734 1.1c-1.615.5-1.817 1.7-1.817 2.9 0 .8.303 1.5.908 2.1.606.6 1.413 1.4 1.716 1.6"/>
        <path stroke="#FFF" stroke-linecap="round" stroke-width=".75" d="M107.05 164l3.872-1.436 3.078-3.077-1.092-4.513-3.376-2.974h-4.965l-3.376 2.974-1.191 4.513 3.078 3.077L107.05 164"/>
        <path stroke="#FFF" stroke-linecap="round" stroke-width=".488" d="M171 143s-5.031 1.079-4.44 2.649c.593 1.667 1.283 2.354.494 2.942-.79.589-17.067.589-17.067.589v2.746c0 .099-.098.099-.098 0-.592-1.373-3.75-1.57-3.75-1.57s-.788-2.746 1.382-3.727c2.17-.98 19.138-.98 19.138-.98"/>
        <ellipse cx="107" cy="196.5" stroke="#FFF" stroke-linecap="round" stroke-width=".5" rx="10" ry="9.5"/>
        <circle cx="107.5" cy="196.5" r="12.5" stroke="#FFF" stroke-linecap="round" stroke-width=".5"/>
        <circle cx="107" cy="196" r="15" stroke="#FFF" stroke-linecap="round"/>
        <path fill="#FFF" d="M106 184h2v3h-2z"/>
        <path fill="#00E734" stroke="#FFF" stroke-width="2" d="M95 192l3 1M116 192.95l3-.9M113 204l1 3M101 204l-2 2"/>
        <path stroke="#FFF" stroke-width=".5" d="M102 196s2.222-2.065 2.315-3.586c.092-1.521.833-1.412.833-1.412H107"/>
        <path stroke="#FFF" stroke-linecap="round" stroke-width=".75" d="M100 195c4.1 1.57 4.4 6 4.4 6h5.2c.7-3.323.5-4.523 4.4-6"/>
        <path stroke="#FFF" stroke-width=".5" d="M112 196s-2.222-2.065-2.315-3.586c-.092-1.521-.833-1.412-.833-1.412H107"/>
        <path stroke="#FFF" stroke-linecap="round" stroke-width=".5" d="M105 191s-3.4 1.368-5 4M109 191s3.431 1.368 5 4"/>
        <path fill="#FFF" fill-rule="nonzero" d="M63.427 280.883c-.876-.308-1.363-.616-1.558-1.026-.195-.41.39-.821 0-1.54-.39-.718-3.31-.102-3.895.719.39 1.129.682 4.003.682 4.003S57 283.347 57 284.065c0 .719 5.453 2.67 6.33 1.643.974-1.232.779-4.62.097-4.825zm-.876 3.08c-.292.308-.974.41-1.558.41-.682 0-1.364-.102-1.558-.102-.195 0-.293-.206-.293-.411s.195-.308.39-.308c.876.205 2.24.205 2.63-.103v-.102c0-.41-.78-1.027-1.364-1.54-.78-.616-1.46-1.232-1.656-1.95-.097-.41 0-.719.195-.924.487-.616 1.753-.513 1.948-.41.195 0 .292.205.292.41s-.195.308-.39.308c-.486-.103-1.168 0-1.363.205 0 0-.097.103 0 .308.098.513.877 1.027 1.46 1.643.78.718 1.559 1.334 1.559 2.052-.097.103-.195.308-.292.514z"/>
        <path stroke="#FFF" stroke-linecap="round" stroke-width=".731" d="M149 279h4v2h-4z"/>
        <path fill="#FFF" d="M152 278h3v6h-3z"/>
        <path stroke="#FFF" stroke-linecap="round" stroke-width=".731" d="M191.65 143l-.3 2M157 299.5h1M161.955 359s1.59 2.028.848 3.96c0 0-.742 3.476-3.179 5.118-2.436 1.738-4.45 2.124-4.555 1.835-.212-.194 0-4.153 1.589-5.408 1.59-1.16 6.145-1.642 6.145-1.642M69 268l-3 22"/>
        <path stroke="#FFF" stroke-linecap="round" stroke-width="1.208" d="M49.895 204s-8.796 7.01-9.424 8.886c-.628 1.876-.628 21.03 0 22.511C41.1 236.878 50 243 50 243l-.105-22.511-5.13.987"/>
        <path stroke="#FFF" stroke-linecap="round" stroke-width=".731" d="M58.738 267s.59-9.4 0-12.2c-.59-2.8-3.66-6.3-4.251-7.9-.709-1.6-.236-3.6-.236-3.6 0-.1-.118-.3-.236-.3H50"/>
        <path stroke="#FFF" stroke-linecap="round" stroke-width=".75" d="M39.65 348l-.3 7"/>
        <path stroke="#FFF" stroke-linecap="round" stroke-width=".731" d="M171.35 348l.3 7M59 284l-5.65 15M59 267l3.002 12.5"/>
        <path stroke="#FFF" stroke-linecap="round" stroke-width=".75" d="M191 141.427l-1.201 1.018c-.4.37-1 .555-1.501.555-3.103-.093-13.411-.278-14.812-.555-1.602-.185-7.106-2.684-10.209-3.702-3.202-1.018-14.211-2.035-15.412-1.665-1.201.37-.8 2.22-.8 2.22"/>
        <path stroke="#FFF" stroke-linecap="round" stroke-width=".75" d="M190 142l-.992.526c-.298.106-.595.21-.893.21-2.678.106-15.673.843-18.053 0-2.679-.947-5.754-2.736-9.622-2.736-5.853 0-7.44 6-7.44 6"/>
        <path stroke="#FFF" stroke-linecap="round" d="M73 312l-4 13"/>
        <path stroke="#FFF" stroke-linecap="round" stroke-width=".5" d="M68.6 145l-.2 3"/>
        <path d="M57.5 326v3M57.35 326l.3 5M152 321l-3 2"/>
        <path stroke="#FFF" d="M149.1 306l-.6 17"/>
        <path stroke="#FFF" stroke-linecap="round" d="M39.65 355.5L43 360M168 360l3.264-5"/>
        <path stroke="#FFF" stroke-linecap="round" stroke-width=".488" d="M87.731 177s5.06-18.22 5.262-20.559c.202-2.338-3.946-11.01-3.946-11.01V139s-4.857.097-7.893 2.63c-3.035 2.534-8.803 8.283-13.154 7.99M67.65 148l-.3 2"/>
        <path stroke="#FFF" stroke-linecap="round" d="M161.4 193l.2 16"/>
        <path stroke="#FFF" stroke-linecap="round" stroke-width=".5" d="M62.002 195.958v19.01M152.1 194l.8 5"/>
    </g>
</svg>
