<svg xmlns="http://www.w3.org/2000/svg" width="41" height="41" viewBox="0 0 41 41">
    <g fill="none" fill-rule="evenodd" transform="translate(3 2)">
        <g fill="#FFF">
            <path d="M28.24 17.103c0 2.72-1.146 5.455-3.404 7.535l-1.273-1.163c1.918-1.753 2.886-4.062 2.886-6.372 0-2.31-.968-4.62-2.886-6.373l1.273-1.163c2.258 2.08 3.405 4.816 3.405 7.536z"/>
            <path d="M24.656 17.103c0 1.884-.788 3.767-2.365 5.209l-1.255-1.147c1.22-1.114 1.828-2.588 1.828-4.062 0-1.475-.609-2.949-1.828-4.063l1.255-1.146c1.577 1.441 2.365 3.325 2.365 5.209z"/>
            <path d="M21.072 17.103c0 1.097-.466 2.13-1.308 2.9l-1.272-1.164a2.354 2.354 0 0 0 .788-1.736c0-.656-.287-1.278-.788-1.737l1.272-1.163c.842.77 1.308 1.802 1.308 2.9zM17.488 9.027v16.152l-7.168-3.98-1.685-3.834.108-.262 1.577-4.096z"/>
        </g>
        <path fill="#FFF" d="M20.974 18.237c0 .986-.47 1.913-1.321 2.605l-1.285-1.045c.507-.412.796-.971.796-1.56h1.81zM24.447 18.237c0 1.884-.756 3.769-2.27 5.21L20.974 22.3a5.593 5.593 0 0 0 1.754-4.063h1.72zM27.921 17.368c0 2.508-.852 5.03-2.529 6.948l-.945-1.073c1.425-1.615 2.143-3.745 2.143-5.875h1.331zM17.5 17.368v7.816l-7.032-3.852-1.652-3.71.105-.254z"/>
        <path fill="#FF6C6C" fill-rule="nonzero" d="M17.5 0C8.412 0 1 7.412 1 16.5 1 25.588 8.412 33 17.5 33 26.588 33 34 25.588 34 16.5 34 7.412 26.588 0 17.5 0zm0 31.066c-8.005 0-14.566-6.542-14.566-14.566 0-3.558 1.34-6.903 3.66-9.533l20.439 20.438c-2.63 2.32-5.975 3.661-9.533 3.661zm10.905-5.033L7.967 5.595c2.63-2.32 5.975-3.661 9.533-3.661 8.005 0 14.566 6.542 14.566 14.566 0 3.558-1.34 6.903-3.66 9.533z"/>
        <path fill="#FF4949" d="M34 16.5C34 25.588 26.588 33 17.5 33 8.412 33 1 25.588 1 16.5h1.934c0 8.024 6.561 14.566 14.566 14.566 3.558 0 6.903-1.34 9.533-3.66L16.127 16.5h2.746l9.532 9.533c2.32-2.63 3.661-5.975 3.661-9.533H34z"/>
        <path fill="#FFF" d="M6.21 13.026v7.816h4.343v-7.816z"/>
        <path fill="#FFF" d="M6.21 17.368h4.343v4.343H6.21z"/>
    </g>
</svg>
