<svg xmlns="http://www.w3.org/2000/svg" width="25" height="26" viewBox="0 0 25 26">
    <g fill="#6CA5F5" fill-rule="nonzero">
        <path d="M23.713 10.69h-2.339a.873.873 0 0 1-.83-.555.874.874 0 0 1 .195-.979l1.654-1.653a1.28 1.28 0 0 0 .376-.91 1.28 1.28 0 0 0-.376-.91l-2.108-2.109c-.486-.486-1.334-.487-1.821 0L16.81 5.228a.873.873 0 0 1-.98.194.873.873 0 0 1-.553-.83V2.255c0-.71-.578-1.287-1.287-1.287h-2.982c-.71 0-1.287.577-1.287 1.287v2.339a.873.873 0 0 1-.554.83.872.872 0 0 1-.979-.195L6.536 3.574c-.487-.487-1.335-.486-1.82 0L2.606 5.682a1.28 1.28 0 0 0-.376.91c0 .344.133.668.376.911l1.654 1.653a.874.874 0 0 1 .195.979.872.872 0 0 1-.83.554H1.287c-.71 0-1.287.577-1.287 1.287v2.981c0 .71.577 1.288 1.287 1.288h2.339c.376 0 .686.207.83.554a.874.874 0 0 1-.195.979L2.607 19.43a1.28 1.28 0 0 0-.376.91c0 .344.133.667.376.91l2.108 2.109c.487.486 1.334.487 1.821 0l1.653-1.654a.873.873 0 0 1 .98-.195.873.873 0 0 1 .553.83v2.339c0 .71.578 1.287 1.287 1.287h2.981c.71 0 1.287-.577 1.287-1.287V22.34c0-.376.207-.686.554-.83a.873.873 0 0 1 .98.195l1.652 1.654c.487.487 1.335.486 1.821 0l2.108-2.108a1.28 1.28 0 0 0 .377-.911 1.28 1.28 0 0 0-.377-.91l-1.654-1.653a.874.874 0 0 1-.194-.98.873.873 0 0 1 .83-.553h2.339c.71 0 1.287-.578 1.287-1.287v-2.982c0-.71-.577-1.287-1.287-1.287zm.361 4.268c0 .199-.162.36-.361.36h-2.339c-.752 0-1.398.432-1.685 1.127a1.795 1.795 0 0 0 .395 1.988l1.654 1.653a.361.361 0 0 1 0 .511l-2.108 2.108a.361.361 0 0 1-.511 0l-1.653-1.654a1.797 1.797 0 0 0-1.988-.395 1.796 1.796 0 0 0-1.126 1.685v2.339c0 .199-.162.361-.361.361h-2.982a.362.362 0 0 1-.36-.361V22.34c0-.752-.432-1.398-1.127-1.685a1.799 1.799 0 0 0-1.988.395l-1.653 1.653a.361.361 0 0 1-.511 0l-2.108-2.107a.361.361 0 0 1 0-.512l1.654-1.653a1.796 1.796 0 0 0 .395-1.988 1.796 1.796 0 0 0-1.685-1.125H1.287a.362.362 0 0 1-.361-.361v-2.982c0-.199.162-.36.361-.36h2.339c.752 0 1.398-.432 1.685-1.127a1.795 1.795 0 0 0-.395-1.988L3.262 6.848a.361.361 0 0 1 0-.511L5.37 4.229a.361.361 0 0 1 .511 0l1.653 1.653a1.796 1.796 0 0 0 1.988.396 1.795 1.795 0 0 0 1.126-1.685v-2.34c0-.198.162-.36.361-.36h2.981c.2 0 .362.162.362.36v2.34c0 .752.431 1.398 1.126 1.685a1.795 1.795 0 0 0 1.988-.395l1.653-1.654a.361.361 0 0 1 .511 0l2.108 2.108a.361.361 0 0 1 0 .511l-1.654 1.654a1.796 1.796 0 0 0-.395 1.988 1.796 1.796 0 0 0 1.685 1.126h2.339c.199 0 .361.161.361.36v2.982z"/>
        <path d="M12.132 9.055A4.048 4.048 0 0 0 8.088 13.1a4.048 4.048 0 0 0 4.044 4.044 4.048 4.048 0 0 0 4.044-4.044 4.048 4.048 0 0 0-4.044-4.044zm0 7.19a3.15 3.15 0 0 1-3.145-3.146 3.15 3.15 0 0 1 3.145-3.145 3.15 3.15 0 0 1 3.146 3.145 3.15 3.15 0 0 1-3.146 3.146z"/>
    </g>
</svg>
