<svg xmlns="http://www.w3.org/2000/svg" width="25" height="26" viewBox="0 0 25 26">
    <g fill="none" fill-rule="evenodd" stroke="#65ABF9" stroke-linecap="round" stroke-linejoin="round">
        <path d="M21.432 12.965c0-.52-.055-1.026-.141-1.521l2.859-2.39-2.395-4.144-3.497 1.275a8.862 8.862 0 0 0-2.644-1.519L14.971 1H10.18l-.643 3.666a8.836 8.836 0 0 0-2.644 1.52L3.395 4.91 1 9.055l2.86 2.389c-.087.495-.142 1-.142 1.52s.055 1.027.141 1.522L1 16.875l2.395 4.145 3.497-1.276a8.836 8.836 0 0 0 2.644 1.52l.643 3.666h4.792l.643-3.667a8.862 8.862 0 0 0 2.644-1.519l3.497 1.276 2.395-4.145-2.86-2.39c.087-.494.142-1 .142-1.52z"/>
        <path d="M17.616 12.764a4.785 4.785 0 1 1-9.571 0 4.785 4.785 0 0 1 9.57 0z"/>
    </g>
</svg>
