<svg xmlns="http://www.w3.org/2000/svg" xmlns:xlink="http://www.w3.org/1999/xlink" width="44" height="44" viewBox="0 0 44 44">
    <defs>
        <circle id="b" cx="18" cy="18" r="18"/>
        <filter id="a" width="141.7%" height="141.7%" x="-20.8%" y="-15.3%" filterUnits="objectBoundingBox">
            <feMorphology in="SourceAlpha" operator="dilate" radius=".5" result="shadowSpreadOuter1"/>
            <feOffset dy="2" in="shadowSpreadOuter1" result="shadowOffsetOuter1"/>
            <feGaussianBlur in="shadowOffsetOuter1" result="shadowBlurOuter1" stdDeviation="2"/>
            <feComposite in="shadowBlurOuter1" in2="SourceAlpha" operator="out" result="shadowBlurOuter1"/>
            <feColorMatrix in="shadowBlurOuter1" values="0 0 0 0 0 0 0 0 0 0 0 0 0 0 0 0 0 0 0.5 0"/>
        </filter>
    </defs>
    <g fill="none" fill-rule="evenodd">
        <g fill-rule="nonzero" transform="translate(4 2)">
            <use fill="#000" filter="url(#a)" xlink:href="#b"/>
            <use fill="#005007" stroke="#009700" xlink:href="#b"/>
        </g>
        <path fill="#FFF" fill-rule="nonzero" d="M24.258 14.129A2.26 2.26 0 0 0 22 11.871a2.26 2.26 0 0 0-2.258 2.258A2.26 2.26 0 0 0 22 16.387a2.26 2.26 0 0 0 2.258-2.258zm-3.695 0a1.438 1.438 0 1 1 2.876.001 1.438 1.438 0 0 1-2.876-.001z"/>
        <path fill="#FFF" fill-rule="nonzero" d="M29.048 25.253H27.79l-2.331-5.397c.004 0 .004-.004.004-.004a6.43 6.43 0 0 0 2.981-5.423C28.448 10.886 25.56 8 22.004 8c-3.556 0-6.444 2.886-6.444 6.43a6.436 6.436 0 0 0 2.981 5.422l.005.004-2.327 5.397H14.96A2.96 2.96 0 0 0 12 28.207c0 .244.198.438.44.438h19.12c.246 0 .44-.198.44-.438a2.95 2.95 0 0 0-2.952-2.954zM16.438 14.43c0-3.058 2.496-5.548 5.566-5.548 3.066 0 5.566 2.49 5.566 5.553 0 3.059-2.496 5.553-5.566 5.553-3.07-.004-5.566-2.494-5.566-5.558zM12.93 27.765a2.082 2.082 0 0 1 2.031-1.635h1.546a.444.444 0 0 0 .405-.266l2.412-5.59a6.396 6.396 0 0 0 2.681.58 6.49 6.49 0 0 0 2.682-.58l2.411 5.59a.44.44 0 0 0 .406.266h1.545c.997 0 1.829.7 2.031 1.635H12.93z"/>
    </g>
</svg>
