<svg xmlns="http://www.w3.org/2000/svg" width="26" height="42" viewBox="0 0 26 42">
    <path fill="#FFF" fill-rule="nonzero" d="M16.002 2.267h-3.665V0h-6.73v2.267H1.943C.872 2.267 0 3.147 0 4.23v27.807C0 33.12.871 34 1.942 34h14.06c1.071 0 1.942-.88 1.942-1.963V4.23a1.955 1.955 0 0 0-1.942-1.963zm-14.88 8.5h15.7v6.8h-15.7v-6.8zm0 7.933h15.7v6.8h-15.7v-6.8zM6.729 1.133h4.486v1.134H6.73V1.133zM1.942 3.4H16.002c.453 0 .82.372.82.83v5.403h-15.7V4.23c0-.458.367-.83.82-.83zm14.06 29.467H1.942a.826.826 0 0 1-.82-.83v-5.404h15.7v5.404c0 .458-.367.83-.82.83z" transform="translate(4 2)"/>
</svg>
