<svg xmlns="http://www.w3.org/2000/svg" xmlns:xlink="http://www.w3.org/1999/xlink" width="44" height="44" viewBox="0 0 44 44">
    <defs>
        <circle id="b" cx="18" cy="18" r="18"/>
        <filter id="a" width="141.7%" height="141.7%" x="-20.8%" y="-15.3%" filterUnits="objectBoundingBox">
            <feMorphology in="SourceAlpha" operator="dilate" radius=".5" result="shadowSpreadOuter1"/>
            <feOffset dy="2" in="shadowSpreadOuter1" result="shadowOffsetOuter1"/>
            <feGaussianBlur in="shadowOffsetOuter1" result="shadowBlurOuter1" stdDeviation="2"/>
            <feComposite in="shadowBlurOuter1" in2="SourceAlpha" operator="out" result="shadowBlurOuter1"/>
            <feColorMatrix in="shadowBlurOuter1" values="0 0 0 0 0 0 0 0 0 0 0 0 0 0 0 0 0 0 0.5 0"/>
        </filter>
    </defs>
    <g fill="none" fill-rule="evenodd">
        <g fill-rule="nonzero" transform="translate(4 2)">
            <use fill="#000" filter="url(#a)" xlink:href="#b"/>
            <use fill="#380313" stroke="#C40013" xlink:href="#b"/>
        </g>
        <g stroke="#FFF" stroke-linecap="round" stroke-linejoin="round">
            <path d="M24 13.5a1.5 1.5 0 1 1-3.001-.001A1.5 1.5 0 0 1 24 13.5z"/>
            <path d="M20.063 28.828v1.19L22.5 32l2.438-1.983v-7.93h1.625l-.47-1.172a6.5 6.5 0 1 0-7.186 0l-.47 1.171h1.625v.793L20.875 24l-.813 1 .813 1-.813 1 .813 1-.813.828z"/>
        </g>
    </g>
</svg>
