<?xml version="1.0" encoding="UTF-8"?>
<svg viewBox="0 0 26 38" version="1.1" xmlns="http://www.w3.org/2000/svg">
    <!-- Generator: Sketch 52.2 (67145) - http://www.bohemiancoding.com/sketch -->
    <title>Group</title>
    <desc>Created with Sketch.</desc>
    <g id="Quox-Mobile" stroke="none" stroke-width="1" fill="none" fill-rule="evenodd">
        <g id="Sensor" transform="translate(-15.000000, -445.000000)" fill-rule="nonzero">
            <g id="Desactivar-sensor" transform="translate(0.000000, 435.000000)">
                <g id="Group" transform="translate(19.000000, 12.000000)">
                    <path d="M6,2 L24,30" id="Line-3" stroke="#FFFFFF" stroke-width="2" stroke-linecap="square"/>
                    <path d="M27.9468437,17.8587674 L27.9202292,17.5652236 C27.4925729,13.0915211 24.9002396,10.2870345 22.6132812,7.81335611 C20.4956354,5.5227764 18.6666667,3.54472425 18.6666667,0.626101261 C18.6666667,0.391734891 18.5033333,0.17752403 18.2443333,0.0700670497 C17.9845313,-0.0379758465 17.672375,-0.0202811856 17.4361979,0.117702014 C14.0015313,2.09270741 11.1357604,5.42147154 10.1346875,8.59760458 C9.43971875,10.8088513 9.34777083,13.2947168 9.33486458,14.9365118 C6.16298958,14.3920787 5.44446875,10.579348 5.43688542,10.5378652 C5.40115625,10.3401185 5.25080208,10.1679764 5.03205208,10.0739955 C4.81104167,9.98124503 4.55123958,9.97450699 4.32716667,10.0636248 C4.16084375,10.1283099 0.2445625,11.7273917 0.0166979167,18.1126448 C0.000729166667,18.3250393 0,18.5374338 0,18.7504143 C0,24.9532132 6.28067708,30 14,30 C21.7193229,30 28,24.9532132 28,18.7504143 C28,18.4391757 27.9734583,18.1486786 27.9468437,17.8587674 Z M13.9999341,28 C11.2427964,28 9.00002447,26.1391234 9.00002447,23.8516501 C9.00002447,23.7737053 8.99924324,23.6950913 9.00650873,23.5987709 C9.0398675,22.6341063 9.27509763,21.9755617 9.53306171,21.5375867 C10.0164905,22.3463619 10.8814748,23.0897877 12.2844964,23.0897877 C12.745113,23.0897877 13.1178407,22.7994878 13.1178407,22.4407353 C13.1178407,21.5165946 13.1422934,20.4505592 13.4376786,19.4883893 C13.7005645,18.6346484 14.3287563,17.7276056 15.1246794,17 C15.4786574,17.9444027 16.1688012,18.7087597 16.8426171,19.4548019 C17.8069747,20.5221759 18.8038317,21.625632 18.9788285,23.5074399 C18.9893752,23.618972 19,23.7311735 19,23.8515892 C18.9998438,26.1391234 16.7570718,28 13.9999341,28 Z M19.4371745,27.9999416 C20.2481103,27.1178777 20.7498182,26.0275512 20.7498182,24.8313115 C20.7498182,24.6846806 20.7383924,24.5483314 20.7154677,24.2933922 C20.5300921,22.2590779 19.4215007,21.0018492 18.4426943,19.8925366 C17.6088338,18.9480815 16.8893773,18.1320892 16.8893773,16.9746395 C16.8893773,16.737927 16.7215066,16.5218947 16.4560042,16.4166242 C16.1920399,16.3107111 15.8731442,16.3344875 15.6373781,16.4774964 C14.1389926,17.3805326 12.8892639,18.9006455 12.4528879,20.3519996 C12.2300856,21.0962538 12.1523026,21.9013218 12.1248368,22.5633809 C11.5831388,22.0984849 11.415268,21.2368092 11.4138032,21.2252423 C11.3787203,21.0250414 11.224619,20.8503695 10.9995463,20.7573085 C10.7760116,20.6648317 10.5082387,20.6623781 10.283166,20.7548549 C10.0862914,20.8351806 8.35675414,21.6262866 8.25758443,24.5362387 C8.25069968,24.6348494 8.24996726,24.7334018 8.24996726,24.8313699 C8.24996726,26.0276096 8.75167516,27.1179361 9.56261091,28 C5.11945644,26.4697223 2.00000517,22.9431024 2.00000517,18.8440962 C2.00000517,18.6572732 1.99927275,18.4710929 2.01523951,18.2635312 C2.14949215,14.5283567 3.64795083,12.6760167 4.62602489,11.8587975 C5.30805467,13.8060679 7.09486721,16.3515457 10.5937122,16.3515457 C11.0255472,16.3515457 11.3749849,16.0728301 11.3749849,15.7283935 C11.3749849,13.6429629 11.433725,11.2331917 12.1326005,9.02665915 C12.9260314,6.52680632 15.0996351,3.82739522 17.7233843,2 C18.1590279,4.66903337 19.9816558,6.62605968 21.8974475,8.68222252 C24.1748352,11.1272786 26.5292735,13.6556982 26.9236818,17.7499141 L26.9504151,18.0480831 C26.9748047,18.3073453 27,18.5659648 27,18.8440378 C26.9997803,22.943044 23.880329,26.4696638 19.4371745,27.9999416 Z" id="Shape-Copy" fill="#FFFFFF"/>
                </g>
            </g>
        </g>
    </g>
</svg>