<svg xmlns="http://www.w3.org/2000/svg" width="22" height="23" viewBox="0 0 22 23">
    <path fill="#65ABF9" fill-rule="evenodd" d="M11.5 16A4.505 4.505 0 0 1 7 11.5C7 9.018 9.018 7 11.5 7S16 9.018 16 11.5 13.982 16 11.5 16zm7.907-3.24a8.46 8.46 0 0 0 .099-1.26 8.46 8.46 0 0 0-.099-1.26l2.457-2.079a.385.385 0 0 0 .084-.486l-2.198-3.85a.38.38 0 0 0-.458-.169l-3.005 1.11a8.421 8.421 0 0 0-2.163-1.256L13.572.317A.38.38 0 0 0 13.2 0H8.802a.38.38 0 0 0-.375.317L7.875 3.51a8.434 8.434 0 0 0-2.162 1.256l-3.005-1.11a.377.377 0 0 0-.458.168L.051 7.675a.386.386 0 0 0 .085.486l2.457 2.08a8.36 8.36 0 0 0-.098 1.259c0 .405.032.819.098 1.26L.136 14.839a.385.385 0 0 0-.085.485l2.199 3.851a.376.376 0 0 0 .458.169l3.005-1.11c.65.521 1.376.943 2.162 1.257l.552 3.192a.38.38 0 0 0 .375.317h4.397a.38.38 0 0 0 .373-.317l.552-3.192a8.436 8.436 0 0 0 2.163-1.257l3.005 1.11a.377.377 0 0 0 .458-.169l2.198-3.85a.384.384 0 0 0-.084-.486l-2.457-2.08z"/>
</svg>
