<svg xmlns="http://www.w3.org/2000/svg" width="25" height="26" viewBox="0 0 25 26">
    <g fill="#FFF" fill-rule="evenodd">
        <path fill-rule="nonzero" d="M21.337 4.413A12.407 12.407 0 0 0 12.5.75c-3.337 0-6.48 1.301-8.837 3.663A12.437 12.437 0 0 0 0 13.25c0 3.337 1.301 6.48 3.663 8.837A12.437 12.437 0 0 0 12.5 25.75c3.337 0 6.48-1.301 8.837-3.663A12.437 12.437 0 0 0 25 13.25c0-3.337-1.301-6.48-3.663-8.837zm2.53 8.276H19.02c-.046-1.929-.316-3.786-.79-5.434a12.396 12.396 0 0 0 2.576-1.775 11.352 11.352 0 0 1 3.061 7.209zM13.061 13.81h4.842c-.04 1.776-.286 3.475-.71 4.995a12.619 12.619 0 0 0-4.132-.898v-4.097zM20 4.7a11.367 11.367 0 0 1-2.122 1.474 13.032 13.032 0 0 0-.659-1.53c-.484-.96-1.035-1.745-1.642-2.347A11.332 11.332 0 0 1 20 4.699zm-6.939-2.653c1.169.26 2.27 1.337 3.158 3.092.24.474.454.98.643 1.515a11.45 11.45 0 0 1-3.8.852v-5.46zM17.2 7.73c.418 1.51.658 3.199.699 4.964h-4.837V8.633A12.626 12.626 0 0 0 17.2 7.73zm-5.26 4.959H7.097c.04-1.766.28-3.454.699-4.965 1.306.531 2.704.837 4.138.898v4.067h.005zm.005-10.643v5.46a11.421 11.421 0 0 1-3.801-.853c.189-.536.403-1.04.643-1.515.887-1.755 1.99-2.832 3.158-3.092zm-2.515.25c-.608.602-1.159 1.393-1.643 2.347-.24.48-.46.99-.658 1.53A11.537 11.537 0 0 1 5.005 4.7 11.332 11.332 0 0 1 9.43 2.296zM4.199 5.48c.79.704 1.653 1.296 2.577 1.775-.475 1.653-.75 3.505-.791 5.434H1.138a11.352 11.352 0 0 1 3.061-7.21zM1.138 13.81h4.847c.046 1.944.321 3.806.8 5.465A12.284 12.284 0 0 0 4.22 21.04a11.334 11.334 0 0 1-3.081-7.23zm3.888 8.01a11.41 11.41 0 0 1 2.112-1.464c.194.526.408 1.03.648 1.5.484.96 1.035 1.745 1.643 2.352a11.388 11.388 0 0 1-4.403-2.388zm6.918 2.633c-1.168-.26-2.27-1.337-3.158-3.092-.235-.464-.444-.959-.633-1.484a11.262 11.262 0 0 1 3.79-.847v5.423zM7.81 18.806c-.423-1.52-.668-3.22-.709-4.995h4.842v4.097a12.364 12.364 0 0 0-4.133.898zm5.255 5.648v-5.423c1.317.066 2.597.352 3.791.847-.189.525-.398 1.02-.633 1.484-.887 1.755-1.99 2.832-3.158 3.092zm2.516-.25c.607-.602 1.158-1.393 1.642-2.352.24-.47.455-.974.648-1.5.75.403 1.46.893 2.113 1.464a11.256 11.256 0 0 1-4.403 2.388zm5.214-3.163a12.48 12.48 0 0 0-2.566-1.765c.48-1.659.755-3.526.8-5.465h4.848a11.388 11.388 0 0 1-3.082 7.23z"/>
    </g>
</svg>
