<svg xmlns="http://www.w3.org/2000/svg" viewBox="0 0 26 22">
    <g fill="#65ABF9" fill-rule="evenodd">
        <path d="M25.814 10.9L22.75 8.253v-5.56a.54.54 0 0 0-.542-.539h-3.25a.54.54 0 0 0-.541.539v1.815L13.355.132a.545.545 0 0 0-.71 0L.186 10.9a.536.536 0 0 0-.078.729l1.625 2.154a.543.543 0 0 0 .795.077L13 4.493l10.47 9.368c.101.09.23.138.363.138.018 0 .035 0 .052-.002a.546.546 0 0 0 .382-.213l1.625-2.154a.536.536 0 0 0-.078-.73"/>
        <path d="M13.371 5.142a.559.559 0 0 0-.743 0l-9.445 8.442a.555.555 0 0 0-.183.41v8.454c0 .305.248.552.556.552H9.11a.554.554 0 0 0 .556-.552v-9.381h6.666v9.381c0 .305.248.552.556.552h5.555a.554.554 0 0 0 .556-.552v-8.454a.556.556 0 0 0-.184-.41L13.37 5.142z"/>
    </g>
</svg>
