<svg xmlns="http://www.w3.org/2000/svg" width="28" height="45" viewBox="0 0 28 45">
    <defs>
        <filter id="a" width="106.9%" height="135.8%" x="-3.5%" y="-17.9%" filterUnits="objectBoundingBox">
            <feOffset dy="2" in="SourceAlpha" result="shadowOffsetOuter1"/>
            <feGaussianBlur in="shadowOffsetOuter1" result="shadowBlurOuter1" stdDeviation="2"/>
            <feColorMatrix in="shadowBlurOuter1" result="shadowMatrixOuter1" values="0 0 0 0 0 0 0 0 0 0 0 0 0 0 0 0 0 0 0.5 0"/>
            <feMerge>
                <feMergeNode in="shadowMatrixOuter1"/>
                <feMergeNode in="SourceGraphic"/>
            </feMerge>
        </filter>
    </defs>
    <g fill="#FFF" fill-rule="nonzero" filter="url(#a)" transform="translate(-21 -15)">
        <path d="M27.712 19.821c-3.89 3.89-3.84 10.272.114 14.225.879.879 1.887 1.58 3.001 2.087l.11 13.602c.002.195.08.382.219.52l3.751 3.752a.733.733 0 0 0 1.037.008l3.042-3.042a.721.721 0 0 0 .21-.516l-.014-2.066a.745.745 0 0 0-.22-.52l-1.279-1.28 1.258-1.257a.733.733 0 0 0-.009-1.036l-.512-.512.504-.504a.733.733 0 0 0-.008-1.037l-1.124-1.124 1.106-1.107a.721.721 0 0 0 .21-.516l-.026-3.298a9.77 9.77 0 0 0 2.969-2.04c3.89-3.89 3.839-10.271-.115-14.225-3.953-3.953-10.334-4.004-14.224-.114zm13.294 13.294a8.343 8.343 0 0 1-2.933 1.906.719.719 0 0 0-.46.67l-.001.01.028 3.481-1.408 1.408a.733.733 0 0 0 .009 1.036l1.124 1.125-.504.504a.733.733 0 0 0 .008 1.036l.513.512-1.258 1.258a.733.733 0 0 0 .009 1.036l1.585 1.585.01 1.459-2.315 2.315-.738-.739-.102-12.67a.673.673 0 0 0-.665-.665.647.647 0 0 0-.655.654l.092 11.351-.944-.944-.112-13.785v-.009a.748.748 0 0 0-.472-.678 8.721 8.721 0 0 1-2.963-1.953c-3.377-3.377-3.42-8.829-.097-12.152 3.323-3.323 8.774-3.28 12.151.098 3.377 3.377 3.421 8.828.098 12.151z"/>
        <path d="M32.64 21.409a2.816 2.816 0 0 0 0 3.977 2.816 2.816 0 0 0 3.978 0 2.816 2.816 0 0 0 0-3.977 2.816 2.816 0 0 0-3.977 0zm2.916 2.915a1.312 1.312 0 0 1-1.853 0 1.312 1.312 0 0 1 0-1.853 1.312 1.312 0 0 1 1.853 0 1.312 1.312 0 0 1 0 1.853z"/>
    </g>
</svg>
