<svg xmlns="http://www.w3.org/2000/svg" viewBox="0 0 28 30">
    <g fill="#FFF" fill-rule="nonzero" transform="translate(-17 -1)">
        <path d="M44.318 15.291v-3.43C44.318 6.975 39.914 3 34.5 3s-9.818 3.975-9.818 8.861v3.43c-2.087.358-3.682 2.17-3.682 4.35v11.942C21 34.018 22.99 36 25.436 36h18.128C46.01 36 48 34.018 48 31.582V19.64c0-2.18-1.595-3.99-3.682-4.349zm-18.409-3.43c0-4.212 3.854-7.639 8.591-7.639 4.737 0 8.59 3.427 8.59 7.64v3.36H25.91v-3.36zm20.864 19.721a3.206 3.206 0 0 1-3.209 3.196H25.436a3.206 3.206 0 0 1-3.209-3.196V19.64a3.206 3.206 0 0 1 3.209-3.196h18.128a3.206 3.206 0 0 1 3.209 3.196v11.942z"/>
        <path d="M34.5 20c-1.379 0-2.5 1.153-2.5 2.571v3.858C32 27.847 33.121 29 34.5 29s2.5-1.153 2.5-2.571V22.57C37 21.153 35.879 20 34.5 20zm1.25 6.429c0 .709-.56 1.285-1.25 1.285s-1.25-.576-1.25-1.285V22.57c0-.709.56-1.285 1.25-1.285s1.25.576 1.25 1.285v3.858z"/>
    </g>
</svg>
