<svg xmlns="http://www.w3.org/2000/svg" width="21" height="25" viewBox="0 0 21 25">
    <path fill="none" fill-rule="nonzero" stroke="#65ABF9" d="M10.406.5C5.21.5 1 4.348 1 9.054c0 2.582 1.636 5.964 4.383 9.722a55.197 55.197 0 0 0 3.13 3.883 45.535 45.535 0 0 0 1.586 1.72.45.45 0 0 0 .614 0c.356-.362.91-.954 1.584-1.72a55.197 55.197 0 0 0 3.131-3.883c2.747-3.758 4.383-7.14 4.383-9.722 0-4.706-4.21-8.554-9.405-8.554zm0 13.61c-3.015 0-5.484-2.257-5.484-5.056 0-2.798 2.469-5.055 5.484-5.055 3.014 0 5.483 2.257 5.483 5.055 0 2.799-2.469 5.055-5.483 5.055z"/>
</svg>
