<svg xmlns="http://www.w3.org/2000/svg" width="42" height="42" viewBox="0 0 42 42">
    <g fill="none" fill-rule="evenodd" transform="translate(2.5 2)">
        <circle cx="18.5" cy="18.5" r="18.5" fill="#D0E1FB" fill-rule="nonzero" stroke="#152345" stroke-width="4"/>
        <path fill="#CD2A00" d="M18.5 6v5.853c2.482 0 4.501 2.011 4.501 4.485 0 2.473-2.02 4.485-4.501 4.485v12.44l8.239-10.32A10.325 10.325 0 0 0 29 16.462C29 10.692 24.29 6 18.5 6z"/>
        <path fill="#D8D7DA" d="M23.013 16.362c0-2.464-2.025-4.467-4.513-4.467v8.934c2.488 0 4.513-2.004 4.513-4.467z"/>
        <path fill="#FF3501" d="M13.999 16.338c0-2.474 2.02-4.485 4.501-4.485V6C12.71 6 8 10.694 8 16.462c0 2.376.782 4.616 2.264 6.482l8.236 10.32V20.822c-2.482 0-4.501-2.012-4.501-4.485z"/>
        <path fill="#FFF" d="M13.987 16.362c0 2.463 2.025 4.467 4.513 4.467v-8.934c-2.488 0-4.513 2.003-4.513 4.467z"/>
    </g>
</svg>
