<svg xmlns="http://www.w3.org/2000/svg" viewBox="0 0 35 35">
    <g fill="none" fill-rule="evenodd" transform="translate(-303 -13)">
        <path fill="#FFF" d="M320.4 37.9h-1.8v-1.8a.6.6 0 0 0-1.2 0v1.8h-1.8a.6.6 0 0 0 0 1.2h1.8v1.8a.6.6 0 0 0 1.2 0v-1.8h1.8a.6.6 0 0 0 0-1.2zM332.4 38.5h-4.8c-.331 0-.6.224-.6.5s.269.5.6.5h4.8c.331 0 .6-.224.6-.5s-.269-.5-.6-.5z"/>
        <path fill="#FFF" fill-rule="nonzero" d="M335.565 24.431v-3.714c0-.671-.546-1.217-1.217-1.217h-3.652c-.672 0-1.218.546-1.218 1.217v3.653h-10.956v-3.653c0-.671-.546-1.217-1.218-1.217h-3.652c-.671 0-1.217.546-1.217 1.217v3.715A3.048 3.048 0 0 0 310 27.413v17.044a3.047 3.047 0 0 0 3.043 3.043h21.914A3.047 3.047 0 0 0 338 44.457V27.413a3.05 3.05 0 0 0-2.435-2.982zm-4.87-3.714h3.653v3.653h-3.652v-3.653zm-17.043 0h3.652v3.653h-3.652v-3.653zm23.13 23.74c0 1.006-.819 1.826-1.825 1.826h-21.914a1.828 1.828 0 0 1-1.826-1.826V32.89h25.566v11.566zm0-12.783h-25.565v-4.261c0-1.007.82-1.826 1.826-1.826h21.914c1.006 0 1.826.82 1.826 1.826v4.26z"/>
        <path fill-rule="nonzero" stroke="#FFF" stroke-linecap="square" stroke-width="2" d="M308 16.5L340 48"/>
    </g>
</svg>
