<svg xmlns="http://www.w3.org/2000/svg" width="29" height="45" viewBox="0 0 29 45">
    <g fill="none" fill-rule="nonzero" transform="translate(-19 -12)">
        <path stroke="#FFF" stroke-linecap="square" stroke-width="2" d="M25 15l18 31"/>
        <path fill="#FFF" d="M26.256 16.897c-3.89 3.89-3.839 10.272.115 14.225.878.879 1.886 1.58 3 2.087l.11 13.602c.002.195.08.382.22.52l3.75 3.752a.733.733 0 0 0 1.038.008l3.042-3.042a.721.721 0 0 0 .21-.516l-.015-2.066a.745.745 0 0 0-.219-.52l-1.279-1.28 1.257-1.257a.733.733 0 0 0-.008-1.036l-.512-.513.504-.504a.733.733 0 0 0-.008-1.036l-1.125-1.125 1.107-1.106a.721.721 0 0 0 .21-.516l-.026-3.299a9.77 9.77 0 0 0 2.969-2.039c3.89-3.89 3.839-10.271-.115-14.225-3.953-3.953-10.334-4.004-14.225-.114zM39.551 30.19a8.343 8.343 0 0 1-2.933 1.906.719.719 0 0 0-.461.67v.01l.028 3.481-1.408 1.408a.733.733 0 0 0 .008 1.036l1.125 1.125-.504.504a.733.733 0 0 0 .008 1.036l.512.512-1.257 1.258a.733.733 0 0 0 .008 1.036l1.585 1.585.01 1.458-2.314 2.316-.739-.739-.101-12.67a.673.673 0 0 0-.666-.666.647.647 0 0 0-.654.655l.091 11.351-.944-.944-.111-13.785v-.01a.748.748 0 0 0-.472-.677 8.721 8.721 0 0 1-2.963-1.953c-3.377-3.378-3.421-8.829-.098-12.152 3.324-3.324 8.775-3.28 12.152.098 3.377 3.377 3.42 8.828.098 12.151z"/>
        <path fill="#FFF" d="M31.185 18.485a2.816 2.816 0 0 0 0 3.977 2.816 2.816 0 0 0 3.978 0 2.816 2.816 0 0 0 0-3.977 2.816 2.816 0 0 0-3.978 0zm2.916 2.915a1.312 1.312 0 0 1-1.854 0 1.312 1.312 0 0 1 0-1.854 1.312 1.312 0 0 1 1.854 0 1.312 1.312 0 0 1 0 1.854z"/>
    </g>
</svg>
