<svg xmlns="http://www.w3.org/2000/svg" width="39" height="40" viewBox="0 0 39 40">
    <defs>
        <filter id="a" width="106.9%" height="141.4%" x="-3.5%" y="-20.7%" filterUnits="objectBoundingBox">
            <feOffset dy="2" in="SourceAlpha" result="shadowOffsetOuter1"/>
            <feGaussianBlur in="shadowOffsetOuter1" result="shadowBlurOuter1" stdDeviation="2"/>
            <feColorMatrix in="shadowBlurOuter1" result="shadowMatrixOuter1" values="0 0 0 0 0 0 0 0 0 0 0 0 0 0 0 0 0 0 0.5 0"/>
            <feMerge>
                <feMergeNode in="shadowMatrixOuter1"/>
                <feMergeNode in="SourceGraphic"/>
            </feMerge>
        </filter>
    </defs>
    <g fill="none" fill-rule="nonzero" filter="url(#a)" transform="translate(-15 -12)">
        <path fill="#FFF" d="M38 23.5c0-1.93-1.57-3.5-3.5-3.5S31 21.57 31 23.5s1.57 3.5 3.5 3.5 3.5-1.57 3.5-3.5zm-5.728 0a2.229 2.229 0 0 1 4.456 0 2.229 2.229 0 0 1-4.456 0z"/>
        <path fill="#FFF" d="M45.425 40.743h-1.951l-3.613-8.366c.006 0 .006-.006.006-.006a9.967 9.967 0 0 0 4.622-8.405C44.495 18.473 40.018 14 34.507 14c-5.512 0-9.99 4.473-9.99 9.966 0 3.526 1.847 6.628 4.622 8.405l.007.006-3.607 8.366h-1.95c-2.527 0-4.589 2.05-4.589 4.578 0 .379.308.679.68.679h29.64a.68.68 0 0 0 .68-.68 4.573 4.573 0 0 0-4.575-4.577zM25.879 23.966c0-4.742 3.869-8.601 8.628-8.601 4.752 0 8.627 3.86 8.627 8.607 0 4.741-3.869 8.608-8.627 8.608-4.76-.007-8.628-3.867-8.628-8.614zm-5.439 20.67a3.227 3.227 0 0 1 3.148-2.535h2.396a.688.688 0 0 0 .629-.411l3.737-8.666a9.914 9.914 0 0 0 4.157.9c1.479 0 2.886-.326 4.156-.9l3.738 8.666a.681.681 0 0 0 .628.411h2.396a3.22 3.22 0 0 1 3.148 2.534H20.44z"/>
        <path stroke="#FFF" stroke-linecap="square" stroke-width="2" d="M27 16l18 28"/>
    </g>
</svg>
