<svg xmlns="http://www.w3.org/2000/svg" width="28" height="27" viewBox="0 0 28 27">
    <g fill="none" fill-rule="evenodd">
        <path fill="#65ABF9" d="M16.63 11.025h.867a.433.433 0 1 0 0-.867h-.867a.433.433 0 1 0 0 .867zM15.114 14.058c-.187 0-.37-.033-.542-.1a.434.434 0 0 0-.309.81c.271.104.557.157.85.157h.155a.433.433 0 1 0 0-.867h-.154zM14.086 11.318a.433.433 0 0 0 .229-.066c.192-.12.404-.192.63-.217a.434.434 0 0 0-.095-.862 2.35 2.35 0 0 0-.994.344.433.433 0 0 0 .23.8zM16.847 17.958l-.111.003a.433.433 0 0 0 .017.866h.019l.848-.002a.433.433 0 1 0 0-.867h-.773zM20.097 11.025a.433.433 0 1 0 0-.867h-.867a.433.433 0 1 0 0 .867h.867zM21.954 17.958a.433.433 0 1 0 0 .867h.866a.433.433 0 1 0 0-.867h-.866zM23.502 14.492a.433.433 0 0 0-.433-.434h-.867a.433.433 0 1 0 0 .867h.867c.239 0 .433-.194.433-.433zM19.354 18.825h.866a.433.433 0 1 0 0-.867h-.866a.433.433 0 1 0 0 .867zM20.902 14.492a.433.433 0 0 0-.433-.434h-.867a.433.433 0 1 0 0 .867h.867c.239 0 .433-.194.433-.433zM17.002 14.058a.433.433 0 1 0 0 .867h.867a.433.433 0 1 0 0-.867h-.867zM11.678 25.758h-.867a.433.433 0 1 0 0 .867h.867a.433.433 0 1 0 0-.867zM9.078 25.758H8.21a.433.433 0 1 0 0 .867h.867a.433.433 0 1 0 0-.867zM24.045 24.249a.433.433 0 0 0-.518.328c-.05.22-.146.424-.287.603a.433.433 0 1 0 .681.535c.219-.277.375-.605.452-.948a.433.433 0 0 0-.328-.518zM23.58 23.47a.433.433 0 0 0 .34-.701 2.402 2.402 0 0 0-.814-.662.433.433 0 1 0-.386.776c.2.099.38.245.519.422a.434.434 0 0 0 .341.165zM21.645 22.292a.433.433 0 0 0-.433-.434h-.867a.433.433 0 1 0 0 .867h.867c.239 0 .433-.194.433-.433zM22.047 25.758h-.836a.433.433 0 1 0 0 .867h.854l.012-.434v.434a.42.42 0 0 0 .418-.434.446.446 0 0 0-.448-.433zM27.001 16.066a.433.433 0 1 0-.856.137 1.518 1.518 0 0 1-.043.667.433.433 0 1 0 .832.244 2.387 2.387 0 0 0 .067-1.048zM13.396 13.562a.434.434 0 0 0 .276-.547 1.514 1.514 0 0 1-.063-.666.433.433 0 1 0-.86-.108 2.385 2.385 0 0 0 .1 1.045.434.434 0 0 0 .547.276zM25.84 14.378a2.357 2.357 0 0 0-1.004-.313.434.434 0 0 0-.068.864c.226.018.441.085.637.199a.433.433 0 0 0 .435-.75zM25.233 17.84a1.505 1.505 0 0 1-.586.118h-.093a.433.433 0 1 0 0 .867h.093c.319 0 .629-.062.92-.185a.433.433 0 1 0-.334-.8zM15.357 20.055c.043-.223.133-.428.268-.612a.433.433 0 0 0-.698-.514 2.375 2.375 0 0 0-.421.963.434.434 0 0 0 .851.163zM16.036 22.55a.433.433 0 0 0 .18-.828 1.533 1.533 0 0 1-.531-.406.433.433 0 1 0-.664.558c.227.27.516.49.835.636.059.026.12.04.18.04zM14.278 25.758h-.867a.433.433 0 1 0 0 .867h.867a.433.433 0 1 0 0-.867zM16.878 25.758h-.867a.433.433 0 1 0 0 .867h.867a.433.433 0 1 0 0-.867zM19.045 22.292a.433.433 0 0 0-.434-.434h-.866a.433.433 0 1 0 0 .867h.866c.24 0 .434-.194.434-.433zM19.478 25.758h-.867a.433.433 0 1 0 0 .867h.867a.433.433 0 1 0 0-.867z"/>
        <path stroke="#56A0FC" d="M10.36 13.182c-.985-1.112-2.297-1.724-3.696-1.724-1.4 0-2.712.612-3.695 1.724-1.999 2.258-1.999 5.931 0 8.19l3.695 4.174 3.695-4.175c1.999-2.258 1.999-5.931 0-8.19zm-3.696 6.076a2.603 2.603 0 0 1-2.6-2.6c0-1.434 1.166-2.6 2.6-2.6 1.434 0 2.6 1.166 2.6 2.6 0 1.434-1.166 2.6-2.6 2.6z"/>
        <path stroke="#65ABF9" d="M22.374 11.245l2.8-3.158c1.508-1.698 1.508-4.461 0-6.16-.745-.84-1.74-1.302-2.8-1.302-1.062 0-2.056.462-2.802 1.302-1.506 1.699-1.506 4.462 0 6.16l2.802 3.158zm.106-8.887a2.386 2.386 0 0 1 2.384 2.384 2.386 2.386 0 0 1-2.384 2.383 2.386 2.386 0 0 1-2.383-2.383 2.386 2.386 0 0 1 2.383-2.384z"/>
    </g>
</svg>
