<svg xmlns="http://www.w3.org/2000/svg" width="27" height="28" viewBox="0 0 27 28">
    <g fill="#6CA5F5" fill-rule="evenodd">
        <path d="M13.56 12.513a.399.399 0 0 0-.528.198 6.398 6.398 0 0 1-2.35 2.725 2.487 2.487 0 0 0-.81.857l-2.438 4.306a.255.255 0 0 1-.443 0l-2.437-4.306a2.485 2.485 0 0 0-.81-.856A6.371 6.371 0 0 1 .825 9.978c.05-3.444 2.914-6.293 6.388-6.293 3.985 0 7.033 3.639 6.273 7.599a.4.4 0 0 0 .784.15C15.614 4.43 7.085.052 2.138 4.996c-3.233 3.232-2.684 8.612 1.172 11.11.466.303.339.209 2.986 4.886.19.334.532.534.917.534.384 0 .727-.2.916-.534 2.64-4.663 2.515-4.58 2.988-4.886a7.193 7.193 0 0 0 2.642-3.065.4.4 0 0 0-.199-.528z"/>
        <path d="M3.399 6.787a.426.426 0 0 0-.595.095 5.433 5.433 0 0 0 1.052 7.46c3.54 2.777 8.794.275 8.794-4.274 0-4.432-5.038-7.011-8.629-4.407a.426.426 0 0 0 .5.69c3.03-2.198 7.277-.02 7.277 3.717a4.54 4.54 0 0 1-.978 2.827 4.582 4.582 0 0 1-6.438.777 4.582 4.582 0 0 1-.888-6.29.426.426 0 0 0-.095-.595z"/>
        <path fill-rule="nonzero" d="M17.273 1.731a5.688 5.688 0 0 0 .929 8.81c.345.223.24.138 2.303 3.782a.91.91 0 0 0 1.582 0c2.062-3.642 1.957-3.558 2.304-3.783a5.682 5.682 0 0 0 2.602-4.784c0-5.018-6.107-7.635-9.72-4.025zm6.684 8.139c-.275.178-.503.42-.662.699-2.053 3.628-1.905 3.417-1.999 3.417-.094 0 .054.21-2-3.417a2.03 2.03 0 0 0-.66-.699 4.878 4.878 0 0 1-2.238-4.186c.061-4.262 5.262-6.449 8.338-3.416 2.232 2.202 1.849 5.898-.779 7.602z"/>
        <path d="M21.293 1.785c-2.212 0-3.96 1.805-3.96 3.97 0 3.366 3.996 5.241 6.582 2.972a.426.426 0 1 0-.562-.64c-2.034 1.785-5.169.306-5.169-2.333a3.115 3.115 0 0 1 3.109-3.118c2.244 0 3.726 2.278 2.873 4.322a.426.426 0 0 0 .785.329c1.089-2.606-.805-5.502-3.658-5.502z"/>
        <path fill-rule="nonzero" d="M13.772 15.96a4.895 4.895 0 0 0 .799 7.58c.277.18.18.092 1.938 3.196a.833.833 0 0 0 1.45 0c1.756-3.104 1.66-3.015 1.939-3.196a4.889 4.889 0 0 0 2.238-4.117c0-4.385-5.3-6.526-8.364-3.463zm5.691 6.91c-.486.315-.452.385-2.2 3.472a.034.034 0 0 1-.06 0c-1.764-3.116-1.72-3.161-2.198-3.471a4.088 4.088 0 0 1-1.876-3.508c.052-3.571 4.41-5.403 6.987-2.862 1.87 1.844 1.549 4.942-.653 6.369z"/>
        <path fill-rule="nonzero" d="M15.343 16.856a3.19 3.19 0 0 0-.671 4.453 3.18 3.18 0 0 0 4.452.671 3.2 3.2 0 0 0 1.292-2.565c0-2.588-2.96-4.119-5.073-2.559zm3.276 4.439c-1.525 1.125-3.717.05-3.717-1.873 0-2.24 2.871-3.2 4.208-1.389a2.337 2.337 0 0 1-.491 3.262z"/>
    </g>
</svg>
