<svg xmlns="http://www.w3.org/2000/svg" width="42" height="43" viewBox="0 0 42 43">
    <defs>
        <filter id="a" width="106.9%" height="141.4%" x="-3.5%" y="-20.7%" filterUnits="objectBoundingBox">
            <feOffset dy="2" in="SourceAlpha" result="shadowOffsetOuter1"/>
            <feGaussianBlur in="shadowOffsetOuter1" result="shadowBlurOuter1" stdDeviation="2"/>
            <feColorMatrix in="shadowBlurOuter1" result="shadowMatrixOuter1" values="0 0 0 0 0 0 0 0 0 0 0 0 0 0 0 0 0 0 0.5 0"/>
            <feMerge>
                <feMergeNode in="shadowMatrixOuter1"/>
                <feMergeNode in="SourceGraphic"/>
            </feMerge>
        </filter>
    </defs>
    <g fill="none" fill-rule="evenodd" filter="url(#a)" transform="translate(-21 -9)">
        <path fill="#FFF" fill-rule="nonzero" d="M40.833 34.759l7.46-7.726c4.166 1.504 8.723-.639 10.178-4.785a7.969 7.969 0 0 0 .228-4.492.678.678 0 0 0-.806-.507.66.66 0 0 0-.33.186l-3.96 4.099-3.574-1.147-1.27-3.533 3.958-4.099a.67.67 0 0 0-.023-.947.68.68 0 0 0-.338-.177c-4.335-.878-8.519 1.916-9.345 6.238a8.008 8.008 0 0 0 .437 4.484l-7.461 7.726c-2.96-1.078-6.256-.323-8.416 1.927-3.077 3.162-2.977 8.25.223 11.363 3.2 3.113 8.289 3.073 11.365-.09 2.186-2.246 2.84-5.578 1.674-8.52zm-4.637 8.986c-3.352 1.523-7.338.027-8.902-3.342-1.564-3.37-.114-7.336 3.238-8.86a6.697 6.697 0 0 1 5.378-.062c.255.108.549.05.74-.148l8.074-8.361a.666.666 0 0 0 .121-.744c-1.569-3.337-.15-7.282 3.17-8.812a6.602 6.602 0 0 1 2.774-.604l-3.286 3.403a.665.665 0 0 0-.146.688l1.525 4.239a.68.68 0 0 0 .433.417l4.29 1.377a.665.665 0 0 0 .682-.17l3.286-3.403a6.554 6.554 0 0 1-6.403 6.809 6.694 6.694 0 0 1-2.8-.54.666.666 0 0 0-.739.148l-8.074 8.36a.666.666 0 0 0-.122.745c1.564 3.37.114 7.336-3.239 8.86z"/>
        <path fill="#FFF" fill-rule="nonzero" d="M36.29 40.379l.709-3.102a.473.473 0 0 0-.134-.446L34.5 34.546a.473.473 0 0 0-.45-.118l-3.075.817a.444.444 0 0 0-.32.332l-.71 3.102a.473.473 0 0 0 .136.443l2.366 2.285c.12.116.29.162.448.12l3.076-.817a.444.444 0 0 0 .32-.331zm-3.403.184l-1.979-1.91.59-2.582 2.56-.68 1.98 1.909-.59 2.583-2.561.68z"/>
        <path fill="#FFF" d="M45.709 24.525c-.338-.327-.82-.378-1.074-.114l-7.354 7.616c-.255.263-.187.742.15 1.068.339.327.82.378 1.074.114l7.355-7.616c.254-.263.187-.742-.151-1.068z"/>
        <path fill-rule="nonzero" stroke="#FFF" stroke-linecap="square" stroke-width="2" d="M31.305 15.72L54 42.875"/>
    </g>
</svg>
