<svg xmlns="http://www.w3.org/2000/svg" width="42" height="43" viewBox="0 0 42 43">
    <g fill="#FFF" fill-rule="evenodd" transform="translate(-14 -17)">
        <path fill-rule="nonzero" d="M33.806 42.902l7.46-7.726c4.166 1.504 8.723-.638 10.179-4.785a7.969 7.969 0 0 0 .227-4.492.678.678 0 0 0-.806-.506.66.66 0 0 0-.33.185l-3.959 4.1-3.575-1.148-1.27-3.533 3.958-4.099a.67.67 0 0 0-.023-.947.68.68 0 0 0-.338-.177c-4.335-.877-8.519 1.916-9.345 6.239a8.008 8.008 0 0 0 .437 4.484l-7.46 7.725c-2.96-1.077-6.257-.323-8.417 1.927-3.077 3.163-2.977 8.25.223 11.363 3.2 3.113 8.289 3.073 11.366-.089 2.185-2.246 2.84-5.579 1.673-8.521zm-4.636 8.986c-3.353 1.524-7.339.027-8.903-3.342-1.564-3.37-.114-7.336 3.239-8.86a6.697 6.697 0 0 1 5.377-.062c.255.108.55.05.74-.148l8.074-8.361a.666.666 0 0 0 .122-.744c-1.57-3.337-.15-7.282 3.17-8.812a6.602 6.602 0 0 1 2.773-.604l-3.286 3.403a.665.665 0 0 0-.146.688l1.526 4.24a.68.68 0 0 0 .432.416l4.29 1.377a.665.665 0 0 0 .682-.17l3.286-3.402a6.554 6.554 0 0 1-6.403 6.808 6.694 6.694 0 0 1-2.8-.54.666.666 0 0 0-.739.148l-8.074 8.36a.666.666 0 0 0-.122.745c1.564 3.37.114 7.336-3.238 8.86z"/>
        <path fill-rule="nonzero" d="M29.262 48.522l.71-3.102a.473.473 0 0 0-.134-.446l-2.366-2.284a.473.473 0 0 0-.45-.118l-3.075.817a.444.444 0 0 0-.32.33l-.71 3.103a.473.473 0 0 0 .136.444l2.366 2.285c.12.116.29.161.448.12l3.076-.818a.444.444 0 0 0 .32-.331zm-3.402.184l-1.979-1.91.59-2.582 2.56-.68 1.98 1.909-.59 2.583-2.561.68z"/>
        <path d="M38.682 32.668c-.338-.327-.819-.377-1.074-.114l-7.354 7.616c-.255.264-.187.742.151 1.069.338.326.819.377 1.074.113l7.354-7.615c.254-.264.187-.743-.151-1.07z"/>
    </g>
</svg>
