<svg xmlns="http://www.w3.org/2000/svg" viewBox="0 0 28 30">
    <path fill="#FFF" fill-rule="nonzero" d="M27.947 17.859l-.027-.294c-.427-4.473-3.02-7.278-5.307-9.752-2.117-2.29-3.946-4.268-3.946-7.187 0-.234-.164-.448-.423-.556a.93.93 0 0 0-.808.048c-3.434 1.975-6.3 5.303-7.301 8.48-.695 2.21-.787 4.697-.8 6.339-3.172-.545-3.89-4.358-3.898-4.4-.036-.197-.186-.369-.405-.463a.945.945 0 0 0-.705-.01c-.166.064-4.082 1.663-4.31 8.049A8.494 8.494 0 0 0 0 18.75C0 24.953 6.28 30 14 30s14-5.047 14-11.25c0-.31-.027-.601-.053-.891zM14 28c-2.757 0-5-1.86-5-4.148 0-.078 0-.157.007-.253.033-.965.268-1.623.526-2.061.483.808 1.348 1.552 2.751 1.552.461 0 .834-.29.834-.65 0-.923.024-1.99.32-2.952.263-.853.89-1.76 1.687-2.488.354.944 1.044 1.709 1.718 2.455.964 1.067 1.96 2.17 2.136 4.052.01.112.021.224.021.345C19 26.139 16.757 28 14 28zm5.437 0c.811-.882 1.313-1.972 1.313-3.169 0-.146-.012-.283-.035-.538-.185-2.034-1.293-3.291-2.272-4.4-.834-.945-1.554-1.76-1.554-2.918 0-.237-.167-.453-.433-.558a.944.944 0 0 0-.819.06c-1.498.904-2.748 2.424-3.184 3.875-.223.744-.3 1.55-.328 2.211-.542-.465-.71-1.326-.711-1.338-.035-.2-.19-.375-.414-.468a.96.96 0 0 0-.717-.002c-.197.08-1.926.871-2.025 3.781a4.233 4.233 0 0 0-.008.295c0 1.197.502 2.287 1.313 3.169C5.119 26.47 2 22.943 2 18.844c0-.187 0-.373.015-.58.134-3.736 1.633-5.588 2.611-6.405.682 1.947 2.469 4.493 5.968 4.493.432 0 .781-.28.781-.624 0-2.085.059-4.495.758-6.701.793-2.5 2.967-5.2 5.59-7.027.436 2.669 2.259 4.626 4.174 6.682 2.278 2.445 4.632 4.974 5.027 9.068l.026.298c.025.26.05.518.05.796 0 4.099-3.12 7.626-7.563 9.156z"/>
</svg>
