<svg xmlns="http://www.w3.org/2000/svg" xmlns:xlink="http://www.w3.org/1999/xlink" width="42" height="124" viewBox="0 0 42 124">
    <defs>
        <filter id="a" width="172.7%" height="178.6%" x="-36.4%" y="-39%" filterUnits="objectBoundingBox">
            <feOffset dy="2" in="SourceAlpha" result="shadowOffsetOuter1"/>
            <feGaussianBlur in="shadowOffsetOuter1" result="shadowBlurOuter1" stdDeviation="2"/>
            <feColorMatrix in="shadowBlurOuter1" result="shadowMatrixOuter1" values="0 0 0 0 0 0 0 0 0 0 0 0 0 0 0 0 0 0 0.5 0"/>
            <feMerge>
                <feMergeNode in="shadowMatrixOuter1"/>
                <feMergeNode in="SourceGraphic"/>
            </feMerge>
        </filter>
        <text id="c" fill="#FFF" font-family="AvenirNext-DemiBold, Avenir Next" font-size="11" font-weight="500" letter-spacing="-.04">
            <tspan x="3" y="49">Sleep</tspan>
        </text>
        <filter id="b" width="148.3%" height="216.7%" x="-24.1%" y="-41.7%" filterUnits="objectBoundingBox">
            <feOffset dy="2" in="SourceAlpha" result="shadowOffsetOuter1"/>
            <feGaussianBlur in="shadowOffsetOuter1" result="shadowBlurOuter1" stdDeviation="2"/>
            <feColorMatrix in="shadowBlurOuter1" values="0 0 0 0 0 0 0 0 0 0 0 0 0 0 0 0 0 0 0.5 0"/>
        </filter>
        <text id="e" fill="#FFF" font-family="AvenirNext-DemiBold, Avenir Next" font-size="11" font-weight="500" letter-spacing="-.04">
            <tspan x="1.5" y="118">Activo</tspan>
        </text>
        <filter id="d" width="146.9%" height="216.7%" x="-25%" y="-41.7%" filterUnits="objectBoundingBox">
            <feOffset dy="2" in="SourceAlpha" result="shadowOffsetOuter1"/>
            <feGaussianBlur in="shadowOffsetOuter1" result="shadowBlurOuter1" stdDeviation="2"/>
            <feColorMatrix in="shadowBlurOuter1" values="0 0 0 0 0 0 0 0 0 0 0 0 0 0 0 0 0 0 0.5 0"/>
        </filter>
    </defs>
    <g fill="#FFF" fill-rule="evenodd">
        <g filter="url(#a)" transform="translate(5 2)">
            <path d="M19.611 9.662a.818.818 0 0 0-.557-.17h-3.04l2.86-3.106.267-.289.137-.17a.928.928 0 0 0 .116-.21.688.688 0 0 0 .05-.254.525.525 0 0 0-.267-.507 1.653 1.653 0 0 0-.76-.141h-3.554a.797.797 0 0 0-.528.155.515.515 0 0 0-.189.415c0 .24.082.386.247.437.235.065.479.094.723.085h2.317a7.674 7.674 0 0 1-.377.465l-.593.648-.804.845-.934 1.008c-.323.352-.535.587-.637.704a.65.65 0 0 0 .066.91c.19.14.427.207.666.19h4.227a.84.84 0 0 0 .564-.163.53.53 0 0 0 .189-.415.556.556 0 0 0-.189-.437zM25.523 12.86a.62.62 0 0 0-.425-.125h-2.304l2.16-2.316.205-.218.13-.151a.682.682 0 0 0 .09-.158.508.508 0 0 0 .04-.19.39.39 0 0 0-.198-.382 1.264 1.264 0 0 0-.576-.106h-2.714a.613.613 0 0 0-.398.119.382.382 0 0 0-.144.309c0 .175.062.285.185.329.178.048.364.067.548.06h1.755a3.93 3.93 0 0 1-.288.348l-.452.487-.59.658-.685.75c-.247.264-.409.443-.487.54a.48.48 0 0 0 .048.658.762.762 0 0 0 .5.138h3.181a.643.643 0 0 0 .425-.118.394.394 0 0 0 .137-.31.413.413 0 0 0-.143-.322zM32.812 8.95a.818.818 0 0 0-.557-.17h-3.058l2.856-3.097.267-.288.174-.204a.924.924 0 0 0 .115-.21.685.685 0 0 0 .05-.253.523.523 0 0 0-.267-.506 1.654 1.654 0 0 0-.759-.14h-3.586a.797.797 0 0 0-.527.154.513.513 0 0 0-.188.414c0 .24.082.384.245.436.235.065.48.093.723.084h2.314a7.654 7.654 0 0 1-.376.464l-.6.66-.78.843-.934 1.004a39.41 39.41 0 0 0-.636.703.647.647 0 0 0 .065.906c.191.14.427.207.665.19h4.215a.843.843 0 0 0 .579-.14.527.527 0 0 0 .188-.415.554.554 0 0 0-.188-.436z"/>
            <path fill-rule="nonzero" d="M30.61 20.7a.71.71 0 0 0-.762-.155c-7.508 3.007-16.114-.444-19.222-7.708a13.815 13.815 0 0 1 .262-11.468.661.661 0 0 0-.33-.892.714.714 0 0 0-.563-.013C1.763 3.736-2.17 12.844 1.213 20.81c3.381 7.964 12.795 11.768 21.027 8.497 3.754-1.492 6.788-4.3 8.495-7.863a.654.654 0 0 0-.125-.744zm-14.485 8.444C7.988 29.143 1.392 22.76 1.394 14.886c0-5.17 2.894-9.935 7.562-12.451a14.914 14.914 0 0 0-.832 4.926c0 8.614 7.218 15.597 16.12 15.596 1.493 0 2.978-.2 4.413-.596-2.687 4.203-7.424 6.768-12.532 6.783z"/>
        </g>
        <!-- <g transform="translate(3 2)">
            <use filter="url(#b)" xlink:href="#c"/>
            <use xlink:href="#c"/>
        </g>
        <g transform="translate(3 2)">
            <use filter="url(#d)" xlink:href="#e"/>
            <use xlink:href="#e"/>
        </g> -->
        <g>
            <path fill-rule="nonzero" d="M37.91 87.272a20.46 20.46 0 0 0-16.827-9.587V73h-1.166v4.685A20.46 20.46 0 0 0 3.09 87.272a.583.583 0 0 0 0 .622 20.46 20.46 0 0 0 16.827 9.587v4.686h1.166V97.48a20.46 20.46 0 0 0 16.827-9.587.583.583 0 0 0 0-.622zm-33.633.311a19.308 19.308 0 0 1 10.05-7.748A9.896 9.896 0 0 0 10.614 87H5.917v1.167h4.696a9.896 9.896 0 0 0 3.715 7.165 19.308 19.308 0 0 1-10.051-7.749zm15.64 5.25v3.47a8.75 8.75 0 0 1-8.137-8.136h3.47V87h-3.47a8.75 8.75 0 0 1 8.137-8.137v3.47h1.166v-3.47A8.75 8.75 0 0 1 29.22 87h-3.47v1.167h3.47a8.75 8.75 0 0 1-8.137 8.137v-3.47h-1.166zm16.806-5.25a19.308 19.308 0 0 1-10.05 7.749 9.896 9.896 0 0 0 3.714-7.165h4.696V87h-4.696a9.896 9.896 0 0 0-3.715-7.165 19.308 19.308 0 0 1 10.051 7.748z"/>
            <path fill-rule="nonzero" d="M20.257 83.694c-2.282 0-4.132 1.742-4.132 3.89.003 2.146 1.851 3.886 4.132 3.888 2.282 0 4.132-1.74 4.132-3.889 0-2.147-1.85-3.889-4.132-3.889zm0 6.667c-1.63 0-2.951-1.244-2.951-2.778.001-1.533 1.322-2.776 2.95-2.777 1.63 0 2.952 1.243 2.952 2.777s-1.321 2.778-2.951 2.778z"/>
            <path d="M6.51 73a.594.594 0 0 0-.593.594v4.753h1.188v-4.159h4.159V73H6.51zM34.49 73h-4.754v1.188h4.16v4.16h1.187v-4.754A.594.594 0 0 0 34.49 73zM33.895 96.82v4.158h-4.159v1.189h4.753a.594.594 0 0 0 .594-.594v-4.754h-1.188zM7.105 100.978V96.82H5.917v4.754c0 .328.266.594.594.594h4.753v-1.189h-4.16z"/>
        </g>
    </g>
</svg>
